<?xml version="1.0" encoding="utf-8"?>
<!-- Generator: Adobe Illustrator 19.2.1, SVG Export Plug-In . SVG Version: 6.00 Build 0)  -->
<!DOCTYPE svg PUBLIC "-//W3C//DTD SVG 1.1//EN" "http://www.w3.org/Graphics/SVG/1.1/DTD/svg11.dtd">
<svg version="1.1" id="Layer_1" xmlns="http://www.w3.org/2000/svg" xmlns:xlink="http://www.w3.org/1999/xlink" x="0px" y="0px"
	 width="210px" height="290px" viewBox="0 0 210 290" style="enable-background:new 0 0 210 290;" xml:space="preserve">
<style type="text/css">
	.st0{fill:#DCDDDD;}
	.st1{fill:#8362A9;}
</style>
<g>
	<path class="st0" d="M18,19.5c54.9-1.1,109.7-2.3,164.6-3.4c1.6,0,5.8-2.5,2.2-2.5C129.9,14.8,75.1,15.9,20.2,17
		C18.6,17.1,14.4,19.6,18,19.5L18,19.5z"/>
</g>
<g>
	<path class="st0" d="M184.8,5c-33.1-0.2-66.2-0.4-99.3-0.7C67,4.2,48.5,4.1,30.1,4c-9.6-0.1-19.3-1-24.2,9.4
		c-0.5,1.1,4.6,0.6,5.3-0.8c4.8-10.2,22.7-6,31.2-6c18.9,0.1,37.8,0.2,56.7,0.4c27.8,0.2,55.7,0.4,83.5,0.5
		C184.2,7.5,188.4,5,184.8,5L184.8,5z"/>
</g>
<g>
	<path class="st0" d="M180.2,281.8c-28.3,0-56.6,0-84.9,0c-17.6,0-35.2,0-52.7,0c-11.1,0-25,1.9-31.6-9.4c-1.2-2.1-8,0.5-7.1,1.9
		c5.7,9.8,17.6,11,27.9,11c17,0,34,0,51,0c31.5,0,63,0,94.6,0C179.6,285.3,185,281.8,180.2,281.8L180.2,281.8z"/>
</g>
<g>
	<path class="st0" d="M18,242.4c58.5-0.2,117.1-0.3,175.6-0.5c0.7,0,2.9-0.2,2.9-1.2c0-64.2,0-128.4,0-192.5c0-9.1,0-18.2,0-27.3
		c0-0.6-3.6-0.1-3.6,1c0,64.2,0,128.4,0,192.5c0,9.1,0,18.2,0,27.3c1-0.4,2-0.8,2.9-1.2c-58.5,0.2-117.1,0.3-175.6,0.5
		C19.5,240.9,16.2,242.4,18,242.4L18,242.4z"/>
</g>
<g>
	<path class="st0" d="M104.4,255.4c-4.7,1.3-11.1,5.7-10.1,11.4c1.1,5.9,9.1,7,13.9,5.8c5.2-1.4,9.2-6,8.4-11.6
		C115.7,254.3,109.7,254.2,104.4,255.4c-2.2,0.5-1.7,2.3,0.5,1.9c4-0.9,7.5,0,8.1,4.6c0.5,3.8-1.5,7.7-5.3,8.7
		c-3.6,1-9.1-0.5-9.8-4.8c-0.7-4.1,3.5-7.6,7-8.6C107.1,256.7,106.6,254.8,104.4,255.4z"/>
</g>
<g>
	<path class="st0" d="M18,19.5c54.9-1.1,109.7-2.3,164.6-3.4c1.6,0,5.8-2.5,2.2-2.5C129.9,14.8,75.1,15.9,20.2,17
		C18.6,17.1,14.4,19.6,18,19.5L18,19.5z"/>
</g>
<g>
	<path class="st0" d="M184.8,5c-33.1-0.2-66.2-0.4-99.3-0.7C67,4.2,48.5,4.1,30.1,4c-9.6-0.1-19.3-1-24.2,9.4
		c-0.5,1.1,4.6,0.6,5.3-0.8c4.8-10.2,22.7-6,31.2-6c18.9,0.1,37.8,0.2,56.7,0.4c27.8,0.2,55.7,0.4,83.5,0.5
		C184.2,7.5,188.4,5,184.8,5L184.8,5z"/>
</g>
<g>
	<path class="st0" d="M180.1,281.4c-28.7,0-57.4,0-86.1,0c-17.4,0-34.8,0-52.3,0c-11.1,0-24.4,1.8-31-9.5c-1.2-2.1-8.2,0.2-6.6,2.9
		c5.9,10,18.5,10.9,28.9,10.9c17,0,34,0,51.1,0c31.1,0,62.2,0,93.4,0C180.2,285.7,184.9,281.4,180.1,281.4L180.1,281.4z"/>
</g>
<g>
	<path class="st0" d="M18.4,242.7c58.5-0.2,117.1-0.3,175.6-0.5c0.6,0,2.5-0.3,2.5-1.3c0-64.2,0-128.4,0-192.5c0-9.1,0-18.2,0-27.3
		c0-1.5-3.6-0.8-3.6,0.4c0,57.6,0,115.2,0,172.7c0,12.5,0,24.9,0,37.4c0,2.5-0.7,6,0,8.4c0.3,1.2,3.8,1.1,0,0
		c-9.4-2.5-23.5,0.1-33.2,0.1c-17.8,0.1-35.6,0.1-53.4,0.2c-28.9,0.1-57.7,0.2-86.6,0.3C18.4,240.6,16,242.7,18.4,242.7L18.4,242.7z
		"/>
</g>
<g>
	<path class="st0" d="M104.5,255.7c-4.7,1.3-11.1,5.5-10.1,11.2c1,5.9,9.2,6.8,13.8,5.5c5.2-1.4,9.2-5.7,8.4-11.4
		C115.7,254.3,109.6,254.5,104.5,255.7c-2.1,0.5-1.8,1.9,0.4,1.4c4.1-0.9,7.6,0.2,8.2,4.9c0.5,3.9-1.4,7.7-5.2,8.8
		c-3.7,1.1-9.2-0.4-9.9-4.8c-0.7-4.1,3.3-7.8,6.9-8.8C107,256.4,106.6,255.1,104.5,255.7z"/>
</g>
<g>
	<path class="st0" d="M18,2.8C-3,4.3,3.5,49.1,3.3,63.8c-0.4,39-0.7,78.1-1,117.1c-0.2,26.6-0.8,53.2-0.4,79.8
		c0.2,12.3,2.6,21.3,16,24.3c14.8,3.3,32.4,0.9,47.4,0.7c37.1-0.3,74.3-1.2,111.5-1c7.9,0,15.5,0.5,21.6-5.5
		c10.8-10.7,8.7-29.7,8.8-43.6c0.3-38.9,0.3-77.9,0.3-116.8c0-30.9,1.6-62.4-0.4-93.2C205.8,5.7,188.5,3,171.6,2.8
		c-16.6-0.2-33.3-0.1-49.9-0.1C87.1,2.7,52.5,2.8,18,2.8c-1,0-1.4,1.3-0.2,1.3C42.7,4,67.6,4,92.5,4c18.4,0,36.7,0,55.1,0
		c13.6,0,30.2-2,43.3,2.3c15.5,5.1,14.5,19.1,14.6,32.3c0.1,14.5,0.2,28.9,0.2,43.4c0.1,38.6,0.1,77.2,0,115.8
		c0,14.2-0.1,28.5-0.2,42.7c-0.2,15.3,0.8,40.8-19.3,43c-8,0.9-16.7,0-24.7,0.1c-18.4,0.1-36.8,0.3-55.2,0.5
		c-18.3,0.2-36.5,0.4-54.8,0.5c-14.9,0.1-42.8,5-47-13.8c-1.6-6.9-0.7-15.2-0.7-22.2c0-12.8,0.1-25.7,0.2-38.5
		c0.3-39.8,0.6-79.6,1-119.3C5,75.1,5.2,59.4,5.3,43.7C5.5,32.1,2.1,5.2,17.8,4.1C18.8,4,19.2,2.8,18,2.8z"/>
</g>
<g>
	<path class="st0" d="M15.8,17.1c56.9-0.3,113.7-0.5,170.6-0.8c6.3,0,4.7-0.4,4.7,6.2c0,11.8,0.1,23.5,0.1,35.3
		c0.1,36.9,0.3,73.8,0.4,110.7c0.1,16,0.1,32,0.2,48c0,7.8,2,18.4,0.1,26c-0.5,2.1,2.6,0-0.9,0.5c-3.9,0.6-8.4,0-12.3,0
		c-15.7,0-31.5,0-47.2,0c-34.4,0-68.8,0-103.2,0c-2.3,0-8.1,1.1-10.2,0c-2.3-1.2-0.1,1.2-1-1.9c-2.3-7.7,0-19.5,0-27.5
		c0-65.7,0-131.5,0-197.2c0-0.5-1.8-0.2-1.8,0.5c0,66,0,132.1,0,198.1c0,9.6,0,19.2,0,28.8c0,0.2,0.4,0.2,0.5,0.2
		c58.9,0,117.8,0,176.6,0c0.4,0,1.3-0.2,1.3-0.7c-0.2-66.3-0.5-132.5-0.7-198.8c0-9.6-0.1-19.3-0.1-28.9c0-0.2-0.4-0.2-0.5-0.2
		c-58.6,0.3-117.2,0.5-175.8,0.8C15.9,16.1,14.6,17.1,15.8,17.1z"/>
</g>
<g>
	<path class="st0" d="M104.8,253.8c-6.8,0.7-11.5,9-6,14.3c6,5.8,17.7,0.9,16.1-7.7c-0.2-0.8-1.9-0.4-1.8,0.5
		c1.4,7.9-9.9,11.5-14,4.9c-2.6-4.4,0.7-10.1,5.5-10.6C105.6,255,106,253.7,104.8,253.8L104.8,253.8z"/>
</g>
<g id="image_frame">
	<path class="st1" d="M105.7,106.5c15.5,0,31.1-0.1,46.6-0.1c5.9,0,17.4-2.4,22.8,0c3.2,1.4,0.3-1.2,1.6,1.3
		c1.4,2.6,0.1,9.1,0.1,12.1c0.1,8.1,1.9,18.1,0.2,26.1c-0.5,2.4,2.4,0-0.9,0.8c-3,0.8-7,0-10.1,0c-18.3,0-38,2.2-56.1,0
		c-3.3-0.4-2.3,0.4-3.1-1c-1.3-2.2,0-9.5,0-12.1c0-9.3,0-18.5,0-27.8c0-0.5-1.8-0.2-1.8,0.5c0,13.7,0,27.4,0,41
		c0,0.2,0.4,0.2,0.5,0.2c24,0,47.9,0,71.9,0c0.4,0,1.3-0.2,1.3-0.7c-0.1-13.7-0.2-27.5-0.3-41.2c0-0.2-0.4-0.2-0.5-0.2
		c-23.9,0-47.7,0.1-71.6,0.1C105.8,105.6,104.5,106.5,105.7,106.5z"/>
</g>
<g>
	<path class="st1" d="M34.4,158.6c44.3,0,88.5,0,132.8,0c1.6,0,8.1-3,4.6-3c-44.3,0-88.5,0-132.8,0
		C37.4,155.5,30.9,158.6,34.4,158.6L34.4,158.6z"/>
</g>
<g>
	<path class="st1" d="M34.4,186.1c42.1,0,84.2,0,126.3,0c1.6,0,8.1-3,4.6-3c-42.1,0-84.2,0-126.3,0C37.4,183,30.9,186.1,34.4,186.1
		L34.4,186.1z"/>
</g>
<g>
	<path class="st1" d="M34.4,145.4c18.1,0,36.3,0,54.4,0c1.6,0,8.1-3,4.6-3c-18.1,0-36.3,0-54.4,0C37.4,142.4,30.9,145.4,34.4,145.4
		L34.4,145.4z"/>
</g>
<g>
	<path class="st1" d="M34.4,132.2c18.1,0,36.3,0,54.4,0c1.6,0,8.1-3,4.6-3c-18.1,0-36.3,0-54.4,0C37.4,129.2,30.9,132.2,34.4,132.2
		L34.4,132.2z"/>
</g>
<g>
	<path class="st1" d="M34.4,119c18.1,0,36.3,0,54.4,0c1.6,0,8.1-3,4.6-3c-18.1,0-36.3,0-54.4,0C37.4,116,30.9,119,34.4,119L34.4,119
		z"/>
</g>
<g>
	<path class="st1" d="M34.4,171.7c40.6,0,81.2,0,121.8,0c1.6,0,8.1-3,4.6-3c-40.6,0-81.2,0-121.8,0
		C37.4,168.7,30.9,171.7,34.4,171.7L34.4,171.7z"/>
</g>
<g>
	<path class="st1" d="M34.4,213.6c32.8,0,65.5,0,98.3,0c1.6,0,8.1-3,4.6-3c-32.8,0-65.5,0-98.3,0C37.4,210.5,30.9,213.6,34.4,213.6
		L34.4,213.6z"/>
</g>
<g>
	<path class="st1" d="M34.4,199.2c40.6,0,81.2,0,121.8,0c1.6,0,8.1-3,4.6-3c-40.6,0-81.2,0-121.8,0
		C37.4,196.2,30.9,199.2,34.4,199.2L34.4,199.2z"/>
</g>
<g>
	<path class="st1" d="M29.8,62c35.4,0,70.8,0,106.2,0c4.6,0,11.6-0.7,15.2-4.1c2.5-2.3,3.6-5-1.3-5c-35.4,0-70.8,0-106.2,0
		C39,53,32,53.7,28.5,57C26,59.3,24.8,62,29.8,62L29.8,62z"/>
</g>
<g>
	<path class="st1" d="M29.8,99.8c18.1,0,36.3,0,54.4,0c4.7,0,11.5-0.8,15.2-4.1c2.5-2.3,3.6-5-1.3-5c-18.1,0-36.3,0-54.4,0
		c-4.7,0-11.5,0.8-15.2,4.1C25.9,97.1,24.9,99.8,29.8,99.8L29.8,99.8z"/>
</g>
<g>
	<path class="st1" d="M29.8,80.9c40.6,0,81.2,0,121.8,0c4.6,0,11.6-0.7,15.2-4.1c2.5-2.3,3.6-5-1.3-5c-40.6,0-81.2,0-121.8,0
		c-4.6,0-11.6,0.7-15.2,4.1C26,78.2,24.8,80.9,29.8,80.9L29.8,80.9z"/>
</g>
<g>
	<path class="st1" d="M34.4,43.4c7.1,0,14.2,0,21.3,0c1.5,0,4-0.2,5.1-1.4c0.7-0.8,1.3-1.7-0.4-1.7c-7.1,0-14.2,0-21.3,0
		c-1.5,0-4,0.2-5.1,1.4C33.2,42.5,32.7,43.4,34.4,43.4L34.4,43.4z"/>
</g>
</svg>
