<?xml version="1.0" encoding="utf-8"?>
<!-- Generator: Adobe Illustrator 19.2.1, SVG Export Plug-In . SVG Version: 6.00 Build 0)  -->
<!DOCTYPE svg PUBLIC "-//W3C//DTD SVG 1.1//EN" "http://www.w3.org/Graphics/SVG/1.1/DTD/svg11.dtd">
<svg version="1.1" id="Layer_1" xmlns="http://www.w3.org/2000/svg" xmlns:xlink="http://www.w3.org/1999/xlink" x="0px" y="0px"
	 width="210px" height="290px" viewBox="0 0 210 290" style="enable-background:new 0 0 210 290;" xml:space="preserve">
<style type="text/css">
	.st0{fill:#DCDDDD;}
	.st1{fill:#FFFFFF;}
	.st2{fill:#5B9CD4;}
</style>
<g>
	<path class="st0" d="M17.2,1.5C-4,2.9,2.5,48.1,2.4,63c-0.4,38.6-0.7,77.2-1,115.9c-0.2,27.6-0.8,55.2-0.5,82.8
		c0.2,12.5,2.5,21.9,16.2,24.8c15,3.2,32.5,0.9,47.7,0.7c37.9-0.4,75.8-1.3,113.7-1c7.4,0.1,14.5,0.3,20.4-5
		c11.4-10.2,9.4-29,9.5-43c0.3-39,0.3-78,0.3-117.1c0-31.8,1.2-63.9-0.4-95.7c-1-20.3-17.1-23.8-34.8-24
		c-17.1-0.3-34.2-0.1-51.3-0.1c-34.9,0-69.9,0.1-104.8,0.1c-0.7,0-1.9,1-0.7,1c25.2-0.1,50.3-0.1,75.5-0.1c18.6,0,37.1,0,55.7,0
		c13.1,0,28.4-1.6,41.2,1.6c17.2,4.3,17.4,17.3,17.5,31.6c0.1,13.7,0.2,27.4,0.2,41.1c0.1,39,0.1,78,0,116.9c0,16-0.1,32.1-0.3,48.1
		c-0.1,14.9,1.1,40.3-18.2,43.4c-8.9,1.4-19,0.1-28,0.2c-17.9,0.1-35.9,0.3-53.8,0.5c-19.2,0.2-38.4,0.4-57.5,0.6
		c-14.4,0.1-40.7,4.4-45.5-13.2c-1.8-6.8-0.9-15.2-0.9-22.2c0-13,0.1-26,0.2-38.9c0.3-40.2,0.6-80.3,1-120.5
		c0.1-16.3,0.3-32.6,0.5-48.8C4.5,31.2,1.1,3.5,17,2.5C17.9,2.4,18.5,1.4,17.2,1.5z"/>
</g>
<g>
	<path class="st0" d="M15,15.7c57.5-0.3,114.9-0.5,172.4-0.8c6.4,0,4.7-0.4,4.7,6.3c0,11.9,0.1,23.8,0.1,35.7
		c0.1,37.3,0.3,74.6,0.4,111.9c0.1,16.2,0.1,32.3,0.2,48.5c0,7.9,2,18.6,0.1,26.3c-0.5,2.2,2.6,0-0.9,0.5c-4,0.6-8.5,0-12.5,0
		c-15.9,0-31.8,0-47.7,0c-34.8,0-69.5,0-104.3,0c-2.3,0-8.1,1.1-10.3,0c-2.4-1.2-0.1,1.2-1-1.9c-2.3-7.8,0-19.7,0-27.8
		c0-66.4,0-132.9,0-199.3c0-0.5-1.8-0.2-1.8,0.5c0,66.7,0,133.5,0,200.2c0,9.7,0,19.4,0,29.1c0,0.2,0.4,0.2,0.5,0.2
		c59.5,0,119,0,178.5,0c0.4,0,1.3-0.2,1.3-0.7c-0.2-67-0.5-133.9-0.7-200.9c0-9.7-0.1-19.5-0.1-29.2c0-0.2-0.4-0.2-0.5-0.2
		C134.2,14.2,75,14.5,15.8,14.8C15.1,14.8,13.8,15.7,15,15.7z"/>
</g>
<g>
	<path class="st0" d="M104.9,255c-6.8,0.7-11.7,9-6.1,14.3c6,5.8,17.8,0.9,16.3-7.8c-0.1-0.7-1.9-0.2-1.8,0.5
		c1.5,8.1-10,11.8-14.1,4.9c-2.7-4.4,0.6-10.4,5.5-10.9C105.7,256.1,106.2,254.9,104.9,255L104.9,255z"/>
</g>
<path class="st1" d="M158.4,133.6c0,29.1-23.6,52.7-52.7,52.7s-52.7-23.6-52.7-52.7s23.6-52.7,52.7-52.7S158.4,104.5,158.4,133.6z"
	/>
<path class="st2" d="M105.7,80.9c-29.1,0-52.7,23.6-52.7,52.7s23.6,52.7,52.7,52.7s52.7-23.6,52.7-52.7S134.8,80.9,105.7,80.9z
	 M97.9,155.8l-19.6-19.6L88.5,126l9.5,9.4l26.3-26.3l10.2,10.2L97.9,155.8z"/>
</svg>
