<?xml version="1.0" encoding="utf-8"?>
<!-- Generator: Adobe Illustrator 19.2.1, SVG Export Plug-In . SVG Version: 6.00 Build 0)  -->
<!DOCTYPE svg PUBLIC "-//W3C//DTD SVG 1.1//EN" "http://www.w3.org/Graphics/SVG/1.1/DTD/svg11.dtd">
<svg version="1.1" id="Layer_1" xmlns="http://www.w3.org/2000/svg" xmlns:xlink="http://www.w3.org/1999/xlink" x="0px" y="0px"
	 width="400px" height="135.4px" viewBox="0 0 400 135.4" style="enable-background:new 0 0 400 135.4;" xml:space="preserve">
<style type="text/css">
	.st0{fill:#DCDDDD;}
	.st1{fill:#CFE7CB;}
	.st2{fill:#52B448;}
</style>
<g>
	<path class="st0" d="M51.9,134.1c28.4,0,56.8,0,85.1,0c0.8,0,2.3-1.2,0.9-1.2c-28.4,0-56.8,0-85.1,0
		C52,132.9,50.5,134.1,51.9,134.1L51.9,134.1z"/>
</g>
<g>
	<path class="st0" d="M16,118.9c-2.7,2.2-5.3,4.5-8,6.7c-1.2,1-2.7,1.9-3.6,3.1c-0.8,0.9-0.5,1.9-0.5,3.2c0,0.7,1.5,0.4,1.5-0.1
		c0-0.7-0.2-1.8,0-2.5c-0.1,0.4,0,0,0.4-0.4c1.3-1.1,2.6-2.2,3.9-3.3c2.4-2,4.8-4.1,7.3-6.1C17.7,118.8,16.5,118.5,16,118.9
		L16,118.9z"/>
</g>
<g>
	<path class="st0" d="M42.8,112.6c23.7-0.1,47.5-0.1,71.2-0.2c0.3,0,0.8-0.2,0.8-0.6c0-18.5,0-37,0-55.4c0-0.8-1.5-0.5-1.5,0.1
		c0,17.8,0,35.5,0,53.3c0,0.6,0.2,1.5,0,2.1c0.3-1.1,1-0.4-1-0.6c-3.4-0.3-7,0-10.3,0c-11.6,0-23.2,0.1-34.9,0.1
		c-8.1,0-16.2,0-24.3,0.1C42.1,111.5,41.8,112.6,42.8,112.6L42.8,112.6z"/>
</g>
<g>
	<path class="st0" d="M21.6,55.6c21.7-0.3,43.3-0.6,65-0.8c5.9-0.1,11.8-0.2,17.7-0.2c2.6,0,7.2-1,9.6-0.1c1.2,0.4-0.1-0.7,0.4,0.3
		c0.5,1.1,0.1,3.3,0.1,4.5c0.1,6,0.2,12,0.3,18c0.1,7.2,0.3,14.4,0.4,21.5c0.1,4.3,0.8,9.1,0.3,13.5c-0.1,1.1,0.6,0.2,0.2,0.5
		c-0.7,0.4-2.7,0-3.4,0c-4.6,0-9.1,0-13.7-0.1c-24.6-0.1-49.2-0.3-73.8-0.4c-3.2,0-2.7,0.7-2.7-2.4c0-6.4,0-12.7,0-19.1
		c0-11.8,0-23.6,0-35.4c0-0.4-0.7-0.2-0.7,0.1c0,19,0,38,0,57c0,0.1,0.1,0.2,0.2,0.2c27.4,0.1,54.9,0.3,82.3,0.4
		c3.9,0,7.9,0,11.8,0.1c0.1,0,0.5-0.1,0.5-0.3c-0.4-19.6-0.7-39.2-1.1-58.7c0-0.2-0.2-0.2-0.3-0.2c-27.1,0.3-54.2,0.7-81.3,1
		c-3.9,0.1-7.8,0.1-11.7,0.2C21.3,55.1,21.1,55.6,21.6,55.6z"/>
</g>
<g>
	<path class="st0" d="M120.2,115.3c-0.4-17.6-0.8-35.2-1.2-52.8c-0.1-2.6,0-5.3-0.2-7.9c-0.3-4.3-2.2-4.9-6.3-5
		c-6.3-0.1-12.6,0.1-18.9,0.2c-21.5,0.2-43,0.3-64.5,0.5c-2.5,0-5-0.1-7.5,0c-3.3,0.2-4.1,1.5-4.2,4.8c-0.2,8,0.2,16,0.3,24
		c0.1,11.5,0.2,23,0.4,34.4c0,1.5,0.2,2.2-0.6,3.3c-1.9,2.5-5.9,4.6-8.3,6.7c-1.5,1.3-5.2,3.5-6,5.4c-0.5,1-0.2,2.5-0.2,3.6
		c0,0.2,0.2,0.2,0.3,0.2c39,0.2,78.1,0.4,117.1,0.7c5.5,0,10.9,0.1,16.4,0.1c0.1,0,0.4-0.1,0.4-0.3c0-4.1-0.4-3.8-3.7-6.4
		c-4.4-3.4-8.7-7-13.2-10.3c-3.1-2.3-7.8-1.2-11.5-1.2c-22.8,0-45.6-0.1-68.3-0.1c-6.7,0-13.4,0-20.1,0c-0.4,0-0.6,0.5-0.1,0.5
		c15,0,30.1,0,45.1,0.1c11,0,22,0,33,0c4.1,0,8.2,0,12.3,0c2.2,0,4.8-0.4,6.9,0c1.5,0.3,2.8,1.7,4.5,3c4.1,3.2,8.3,6.5,12.4,9.7
		c1.3,1,3,3.6,1.9,4.4c-0.9,0.5-3.9,0-4.9,0c-18.2-0.1-36.4-0.2-54.5-0.3c-20.5-0.1-41-0.2-61.5-0.3c-2.8,0-5.7,0-8.5,0
		c-0.6,0-3.1,0.4-3.6,0c0.3,0.2,0.2-2.8,0.4-3.2c0.9-1.9,4.3-3.9,5.8-5.2c2.4-2.1,8.3-5.2,9.1-8.1c0.8-2.9-0.1-7.4-0.1-10.4
		c-0.1-5.5-0.1-11-0.2-16.4c-0.1-10.1-0.2-20.1-0.4-30.2c-0.1-3.3-0.3-7.2,3.7-7.9c2.6-0.5,5.7,0,8.4-0.1
		c10.6-0.1,21.2-0.2,31.8-0.2c11.5-0.1,22.9-0.2,34.4-0.3c3.9,0,7.8-0.1,11.7-0.1c3.9,0,9.5-0.9,9.9,4.3c1.4,18.2,0.9,36.7,1.2,55
		c0,1.9,0.1,3.8,0.1,5.8C119.5,115.7,120.3,115.6,120.2,115.3L120.2,115.3z"/>
</g>
<g>
	<path class="st0" d="M137.1,129.7c-39-0.2-78.1-0.4-117.1-0.7c-5.5,0-10.9-0.1-16.4-0.1c-0.3,0-0.8,0.5-0.3,0.5
		c39,0.2,78.1,0.4,117.1,0.7c5.5,0,10.9,0.1,16.4,0.1C137.2,130.2,137.6,129.7,137.1,129.7L137.1,129.7z"/>
</g>
<g>
	<path class="st0" d="M129,14.9c0,14.9,0.1,29.8,0.2,44.6c0.1,8.8,0.1,17.6,0.3,26.3c0,1.8,0,3.7,0.2,5.5c0.5,5.5,3.1,7.6,8.4,7.7
		c0.5,0,1.6-0.7,0.6-0.7c-9.2-0.1-7.7-10.2-7.8-16.8c-0.1-8.9-0.2-17.7-0.2-26.6c-0.1-13.5-0.1-27-0.1-40.5
		C130.5,14.1,129,14.4,129,14.9L129,14.9z"/>
</g>
<g>
	<path class="st0" d="M214.6,126.5c3.8,6.5-22.7,6.5-24.6,6.5c-5.1,0-14.2,1-18.7-2.1c-3.8-2.6-0.3-7.4,1.9-9.9
		c1.1-1.3-1.6-1.4-2.4-0.6c-2.6,3.1-6.5,8.3-2.4,11.7c1.6,1.3,4,1.7,6,2c6,1,12.2,0.9,18.3,0.9c2.4,0,29.8-0.5,24.6-9.5
		C216.8,124.4,213.9,125.4,214.6,126.5L214.6,126.5z"/>
</g>
<g>
	<path class="st0" d="M155.4,99.3c26.4-0.3,52.8-0.5,79.2-0.8c0.8,0,2.3-1.2,0.9-1.2c-26.4,0.3-52.8,0.5-79.2,0.8
		C155.5,98.1,153.9,99.3,155.4,99.3L155.4,99.3z"/>
</g>
<g>
	<path class="st0" d="M253,90.5c0.4-27.8,0.9-55.5,1.3-83.3c0-0.4-0.4-0.5-0.7-0.5c-34.1,0.5-68.1,0.9-102.2,1.4
		c-4.9,0.1-9.8,0.1-14.7,0.2c-0.8,0-1.1,1.1-0.1,1.1c28.8-0.4,57.5-0.8,86.3-1.2c7.2-0.1,14.4-0.2,21.6-0.3c2.2,0,4.4-0.1,6.6-0.1
		c0.7,0,2.5,0.3,2.1-0.3c-0.5-0.6-0.4,2.6-0.4,3.1c0,2.9-0.1,5.9-0.1,8.8c-0.1,8.7-0.3,17.4-0.4,26c-0.2,15-0.5,30.1-0.7,45.1
		C251.5,91.4,253,91.1,253,90.5L253,90.5z"/>
</g>
<g>
	<path class="st0" d="M128.5,9.3c0,14,0.1,28,0.2,42c0.1,9,0.1,18,0.3,27c0.1,5.1-0.3,10.5,0.8,15.5c1.2,5.5,5.8,5.4,10.5,5.5
		c6.2,0.1,12.5,0.1,18.7,0.1c18.7,0,37.5,0,56.2,0c7.8,0,15.5,0,23.3-0.1c4,0,8.4,0.4,12.4-0.3c8.1-1.3,8.1-9.8,8-16.5
		c-0.1-8.4-0.1-16.9-0.2-25.3c-0.1-10.3-0.1-20.7-0.2-31c0-5.9,0.5-12.1-0.3-18c-1-7.3-8.1-7.7-14.2-7.7c-5.7,0-11.4,0.1-17.1,0.2
		c-18.8,0.3-37.7,0.6-56.5,1c-7.9,0.1-15.9,0.3-23.8,0.4c-3.9,0.1-8.1-0.4-12,0.3C131,3,128.8,5.6,128.5,9.3c0,0.4,0.7,0.3,0.7,0
		c0.5-7.5,9.2-6.5,14.6-6.6c6.6-0.1,13.2-0.2,19.9-0.3c17.6-0.3,35.3-0.6,52.9-0.9c6.9-0.1,13.8-0.2,20.7-0.3
		c5.1-0.1,12.5-1.1,16.9,1.6c5,3.1,3.5,12.8,3.6,18c0.1,8.9,0.1,17.9,0.2,26.8c0.1,9,0.1,18,0.2,27c0,6.6,2.3,19.5-4.5,23.1
		c-3.4,1.8-8.9,1-12.6,1.1c-6.7,0-13.3,0.1-20,0.1c-17.4,0-34.8,0.1-52.2,0.1c-7.1,0-14.2,0-21.3-0.1c-3.9,0-8.1,0.3-11.9-0.3
		c-6.8-1.1-5.6-10.9-5.7-16.3c-0.2-7.5-0.2-15.1-0.3-22.6c-0.1-15.4-0.2-30.8-0.3-46.2c0-1.4,0-2.7,0-4.1
		C129.2,8.9,128.5,9,128.5,9.3z"/>
</g>
<g>
	<path class="st0" d="M134.6,8.1c29.4-0.4,58.7-0.9,88.1-1.3c7.2-0.1,14.5-0.2,21.7-0.3c2.1,0,4.2-0.1,6.3-0.1
		c0.7,0,2.4,0.3,2.1-0.2c0.4,0.5,0,3,0,3.6c0,2.8,0,5.7,0,8.5c0,8.9,0,17.9,0,26.8c0,9.4,0,18.8,0,28.1c0,5.7-0.7,11.8,0,17.5
		c0,0.2,0.1,1,0,1.3c-0.1,0.1,0.8-0.5,0-0.2c-1.1,0.4-3.2,0-4.3,0c-6.3,0-12.6-0.1-18.8-0.1c-18.9-0.1-37.8-0.2-56.7-0.4
		c-8.1-0.1-16.2-0.1-24.3-0.2c-2.8,0-5.6,0-8.5-0.1c-1.3,0-3.4,0.4-4.6,0c-1.2-0.4-0.2,0.7-0.6-0.6c-0.4-1.7,0-4.1,0-5.9
		c0-8,0-16.1,0-24.1c0-16.4,0-32.8,0-49.2c0-1.1,0-2.2,0-3.3c0-0.4-0.7-0.2-0.7,0.1c0,27.8,0,55.6,0,83.4c0,0.1,0.1,0.2,0.2,0.2
		c34.6,0.2,69.3,0.4,103.9,0.7c4.9,0,9.7,0.1,14.6,0.1c0.1,0,0.5-0.1,0.5-0.3c0-25.1,0-50.1,0-75.2c0-3.6,0-7.1,0-10.7
		c0-0.2-0.2-0.2-0.3-0.2c-34.6,0.5-69.3,1-103.9,1.5c-4.9,0.1-9.7,0.1-14.6,0.2C134.3,7.6,134.1,8.1,134.6,8.1z"/>
</g>
<g>
	<path class="st0" d="M176.6,99.2c0,3.6,0.3,7.3-0.2,10.8c-0.7,5.6-4.1,8.4-7.4,12.5c-5.2,6.4,0.7,9.5,7,10.6
		c4,0.7,49.1,4.3,40.7-9.8c-2.3-3.9-5.8-5.9-7.1-10.6c-1.3-4.4-0.9-9.1-0.9-13.6c0-0.1-0.1-0.2-0.2-0.2c-10.5,0-20.9,0-31.4,0
		c-0.3,0-0.8,0.5-0.3,0.5c7.5,0,14.9,0,22.4,0c1.6,0,7.6-1,8.9,0c-0.2-0.2-0.1,0.4-0.1,1.2c0.1,3.1-0.2,6.1,0.2,9.2
		c0.7,5,2.9,8.3,6.2,12c3.1,3.4,3.2,7-1.3,9.3c-7.1,3.6-17.1,2.8-24.7,2.6c-4.7-0.1-21.3,0.5-20.8-6.9c0.3-4.6,6.4-8,8.3-12.2
		c2.1-4.8,1.4-10.4,1.4-15.5C177.4,98.7,176.6,98.9,176.6,99.2z"/>
</g>
<g>
	<path class="st0" d="M274.9,23.7c22.2-0.5,44.5-0.9,66.8-1.4c0.7,0,2.4-1,0.9-1c-22.2,0.5-44.5,0.9-66.8,1.4
		C275.2,22.7,273.5,23.7,274.9,23.7L274.9,23.7z"/>
</g>
<g>
	<path class="st0" d="M342.6,17.8c-13.4-0.1-26.8-0.2-40.3-0.3c-7.5,0-15-0.1-22.5-0.1c-3.9,0-7.8-0.4-9.8,3.8
		c-0.2,0.4,1.9,0.3,2.2-0.3c1.9-4.1,9.2-2.5,12.6-2.4c7.7,0.1,15.3,0.1,23,0.2c11.3,0.1,22.6,0.1,33.9,0.2
		C342.4,18.8,344,17.8,342.6,17.8L342.6,17.8z"/>
</g>
<g>
	<path class="st0" d="M340.7,130.1c-11.5,0-22.9,0-34.4,0c-7.1,0-14.3,0-21.4,0c-4.5,0-10.1,0.7-12.8-3.9c-0.5-0.8-3.2,0.2-2.9,0.8
		c2.3,4,7.2,4.4,11.3,4.4c6.9,0,13.8,0,20.7,0c12.8,0,25.6,0,38.4,0C340.4,131.5,342.7,130.1,340.7,130.1L340.7,130.1z"/>
</g>
<g>
	<path class="st0" d="M275.3,114.3c23.8-0.1,47.5-0.1,71.2-0.2c0.3,0,0.8-0.2,0.8-0.6c0-26,0-52.1,0-78.1c0-3.7,0-7.4,0-11.1
		c0-0.8-1.5-0.5-1.5,0.1c0,23.4,0,46.7,0,70.1c0,5.1,0,10.1,0,15.2c0,1.1-0.1,2.3,0,3.4c0,0.5,1.3,0.3-0.2-0.1c-4-0.9-9.4,0-13.5,0
		c-7.2,0-14.4,0-21.6,0.1c-11.7,0-23.4,0.1-35.1,0.1C274.6,113.3,274.3,114.3,275.3,114.3L275.3,114.3z"/>
</g>
<g>
	<path class="st0" d="M310,119.6c-1.9,0.5-4.5,2.1-4.1,4.5c0.4,2.4,3.7,2.7,5.6,2.2c2.1-0.5,3.8-2.2,3.4-4.5
		C314.6,118.9,312.1,119.1,310,119.6c-0.8,0.2-0.7,0.6,0.1,0.4c1.7-0.4,3.1,0.2,3.3,2.1c0.1,0.6,0,1.2-0.2,1.8
		c-0.4,1.1-0.9,1.5-2.1,1.7c-1.1,0.3-1.9,0.3-2.8-0.4c-0.5-0.4-0.9-0.9-1.1-1.6c-0.3-1.6,1.3-3.2,2.8-3.6
		C311,119.7,310.9,119.3,310,119.6z"/>
</g>
<g>
	<path class="st0" d="M274.9,17c-8.5,0.6-5.9,18.7-6,24.7c-0.2,15.5-0.3,31-0.4,46.5c-0.1,11.1-0.3,22.2-0.2,33.2
		c0.1,5,1,8.8,6.5,10c6,1.3,13,0.3,19.1,0.3c15.2-0.1,30.4-0.5,45.6-0.4c3,0,5.8,0.1,8.2-2c4.6-4.1,3.8-11.6,3.8-17.2
		c0.1-15.7,0.1-31.3,0.1-47c0-12.8,0.5-25.7-0.2-38.4c-0.4-8.2-6.8-9.5-14-9.6c-6.9-0.1-13.7,0-20.6,0
		C303.1,16.9,289.1,16.9,274.9,17c-0.2,0-0.7,0.4-0.2,0.4c10.1,0,20.2,0,30.3,0c7.5,0,14.9,0,22.4,0c5.3,0,11.4-0.6,16.5,0.6
		c6.9,1.7,7,7,7,12.7c0.1,5.5,0.1,11,0.1,16.5c0,15.6,0,31.3,0,46.9c0,6.4,0,12.9-0.1,19.3c-0.1,6,0.4,16.2-7.3,17.4
		c-3.6,0.6-7.6,0.1-11.2,0.1c-7.2,0.1-14.4,0.1-21.6,0.2c-7.7,0.1-15.4,0.2-23.1,0.2c-5.8,0-16.4,1.8-18.2-5.3
		c-0.7-2.7-0.4-6.1-0.4-8.9c0-5.2,0.1-10.4,0.1-15.6c0.1-16.1,0.2-32.3,0.4-48.4c0.1-6.5,0.1-13.1,0.2-19.6c0-4.6-1.3-15.7,5.1-16.1
		C275.2,17.4,275.4,16.9,274.9,17z"/>
</g>
<g>
	<path class="st0" d="M274.1,22.7c23.1-0.1,46.1-0.2,69.2-0.3c2.6,0,1.9-0.2,1.9,2.5c0,4.8,0,9.5,0.1,14.3c0.1,15,0.1,29.9,0.2,44.9
		c0,6.5,0,13,0.1,19.5c0,3.2,0.8,7.5,0,10.5c-0.2,0.9,1,0-0.4,0.2c-1.6,0.2-3.4,0-5,0c-6.4,0-12.8,0-19.2,0c-14,0-27.9,0-41.9,0
		c-0.9,0-3.3,0.4-4.1,0c-0.9-0.5,0,0.5-0.4-0.8c-0.9-3.1,0-7.9,0-11.2c0-26.7,0-53.3,0-80c0-0.2-0.7-0.1-0.7,0.2
		c0,26.8,0,53.6,0,80.4c0,3.9,0,7.8,0,11.7c0,0.1,0.2,0.1,0.2,0.1c23.9,0,47.8,0,71.6,0c0.2,0,0.5-0.1,0.5-0.3
		c-0.1-26.9-0.2-53.8-0.3-80.6c0-3.9,0-7.8,0-11.7c0-0.1-0.2-0.1-0.2-0.1c-23.8,0.1-47.5,0.2-71.3,0.3
		C274.1,22.3,273.6,22.7,274.1,22.7z"/>
</g>
<g>
	<path class="st0" d="M310.1,118.8c-2.7,0.3-4.7,3.6-2.5,5.7c2.4,2.3,7.2,0.4,6.5-3.1c-0.1-0.3-0.8-0.1-0.7,0.2c0.6,3.3-4,4.7-5.7,2
		c-1.1-1.8,0.2-4.2,2.2-4.4C310.4,119.2,310.6,118.7,310.1,118.8L310.1,118.8z"/>
</g>
<g>
	<path class="st1" d="M365.6,66.1c8-0.3,15.9-0.5,23.9-0.8c0.7,0,2.3-1,0.9-1c-8,0.3-15.9,0.5-23.9,0.8
		C365.9,65.1,364.2,66.1,365.6,66.1L365.6,66.1z"/>
</g>
<g>
	<path class="st1" d="M391.8,130.1c-4.6,0-9.2,0.1-13.8,0.1c-4.3,0-11.6,1.8-13.4-2.3c-0.4-0.8-3.2,0.1-2.9,0.8c2,4.4,8,3,11.8,2.9
		c5.7-0.1,11.4-0.1,17.1-0.2C391.5,131.5,393.8,130.1,391.8,130.1L391.8,130.1z"/>
</g>
<g>
	<path class="st1" d="M365.8,123.4c8.6-0.3,17.2-0.6,25.8-1c0.3,0,0.8-0.2,0.8-0.6c0.5-17.6,1-35.3,1.4-52.9c0-0.8-1.4-0.5-1.5,0.1
		c-0.4,14.6-0.8,29.3-1.2,43.9c-0.1,2.6-0.6,5.6-0.2,8.2c0.1,1.1-0.2,0.7,0.6,0.3c-0.7,0.3-2.5,0.1-3.3,0.1
		c-7.4,0.3-14.8,0.6-22.3,0.8C365.1,122.3,364.8,123.4,365.8,123.4L365.8,123.4z"/>
</g>
<g>
	<path class="st1" d="M377.8,125.6c-0.6,0.5-1.1,1.3-0.7,2c0.5,0.9,1.6,0.8,2.4,0.5c0.4-0.2,0.6-0.3,0.8-0.7
		c0.2-0.5,0.2-1.1-0.1-1.5C379.6,125.1,378.5,125.1,377.8,125.6c-0.1,0-0.1,0.2,0,0.3c0.1,0.1,0.4,0,0.5-0.1
		c0.6-0.4,1.2,0.2,1.3,0.8c0.1,0.3,0,0.7-0.1,1c0,0.1-0.1,0.1,0,0.1c-0.1,0.1-0.4,0.2-0.6,0.2c-0.6,0.1-1.1-0.3-1.2-0.9
		c0-0.5,0.3-0.9,0.7-1.2c0.1-0.1,0-0.2-0.1-0.3C378.1,125.4,377.9,125.5,377.8,125.6z"/>
</g>
<g>
	<path class="st2" d="M366,65.5c5.9-0.2,11.8-0.4,17.6-0.6c2.3-0.1,4.8-0.5,7.1-0.3c4.9,0.4,5.4,4.6,5.4,8.7
		c0.1,12.9-0.3,25.9-0.6,38.9c-0.1,4.4,0.2,9-0.2,13.4c-0.8,8-13,5.8-18.7,5.8c-3,0-6,0.1-9,0c-4.7-0.2-5.6-3.1-5.6-7.2
		c0-5.6,0.1-11.3,0.1-16.9c0-8,0.1-15.9,0.2-23.9C362.3,79.5,360.6,66.6,366,65.5c0.6-0.1,0.4-0.5,0-0.4c-5.3,1-4.4,7.6-4.4,11.8
		c-0.1,8.2-0.1,16.4-0.2,24.5c0,7.3-0.1,14.6-0.1,22c0,2.1-0.4,4.8,1,6.6c1.6,2.1,4.4,1.8,6.7,1.8c4.4,0,8.8,0,13.2,0
		c3,0,6.8,0.7,9.7-0.2c4.8-1.4,4.3-6.7,4.3-10.6c0.3-15.4,0.6-30.8,0.7-46.2c0-5.6-0.6-10.9-7.2-10.6c-7.9,0.3-15.8,0.5-23.7,0.9
		C365.7,65.1,365.5,65.6,366,65.5z"/>
</g>
<g>
	<path class="st2" d="M365,69.7c5.7-0.2,11.4-0.4,17.1-0.7c2.8-0.1,5.8-0.5,8.6-0.3c2,0.1,1-0.5,1.4,1c1,4.7,0,10.7-0.1,15.5
		c0,7.4-0.1,14.8-0.1,22.2c0,3.1,0,6.2,0,9.4c0,1.3,0.5,3.8,0,5.1c-0.3,0.7,0.6-0.2,0.3,0.1c-0.4,0.3-2.1,0-2.5,0
		c-3.4,0-6.9,0-10.3,0c-2.2,0-13.1,0.9-13.8-0.1c-0.5-0.8,0-3.2,0-4.2c0-3,0-6,0-9c0-13.1,0-26.2,0-39.3c0-0.2-0.7-0.1-0.7,0.2
		c0,17.5,0,35.1,0,52.6c0,0.1,0.2,0.1,0.2,0.1c9,0,18,0,27,0c0.2,0,0.5-0.1,0.5-0.3c0.1-17.9,0.2-35.8,0.2-53.7
		c0-0.1-0.2-0.1-0.2-0.1c-9.1,0.4-18.2,0.7-27.2,1.1C365,69.3,364.5,69.7,365,69.7z"/>
</g>
<g>
	<path class="st2" d="M378.8,125.1c-0.7,0.1-1.4,0.4-1.6,1.1c-0.2,0.5-0.2,1.1,0.2,1.5c0.6,0.5,1.6,0.6,2.3,0.1
		c0.5-0.4,0.8-1.3,0.5-1.9c-0.1-0.1-0.5,0-0.4,0.1c0.2,0.4,0.1,0.9-0.1,1.3c-0.4,0.7-1.7,0.6-2.1-0.1c-0.4-0.9,0.3-1.8,1.2-1.9
		C378.9,125.3,379.1,125.1,378.8,125.1L378.8,125.1z"/>
</g>
</svg>
