<?xml version="1.0" encoding="utf-8"?>
<!-- Generator: Adobe Illustrator 19.2.1, SVG Export Plug-In . SVG Version: 6.00 Build 0)  -->
<!DOCTYPE svg PUBLIC "-//W3C//DTD SVG 1.1//EN" "http://www.w3.org/Graphics/SVG/1.1/DTD/svg11.dtd">
<svg version="1.1" id="Layer_1" xmlns="http://www.w3.org/2000/svg" xmlns:xlink="http://www.w3.org/1999/xlink" x="0px" y="0px"
	 width="215.4px" height="134.3px" viewBox="0 0 215.4 134.3" style="enable-background:new 0 0 215.4 134.3;" xml:space="preserve"
	>
<style type="text/css">
	.st0{fill:#DCDDDD;}
	.st1{fill:#FFF2DF;}
	.st2{fill:#FFD62B;}
</style>
<g>
	<g>
		<path class="st0" d="M77.7,134.3c45.1,0,90.3,0,135.4,0c1.4,0,3.6-2.1,1.3-2.1c-45.1,0-90.3,0-135.4,0
			C77.6,132.1,75.4,134.3,77.7,134.3L77.7,134.3z"/>
	</g>
	<g>
		<path class="st0" d="M20.3,110.5c-4.1,3.5-8.3,7-12.4,10.5c-1.8,1.5-4.6,3.1-6,5c-1,1.4-0.6,3-0.6,4.8c0,0.4,2.3,0.1,2.3-0.6
			c0-2.4-0.5-3.4,1-4.9c1.9-1.9,4.2-3.5,6.2-5.2c3.8-3.2,7.7-6.5,11.5-9.7C22.9,109.9,20.7,110.1,20.3,110.5L20.3,110.5z"/>
	</g>
	<g>
		<path class="st0" d="M62.8,99.8c37.8-0.1,75.5-0.2,113.3-0.3c0.4,0,1.6-0.2,1.6-0.8c0-29.4,0-58.8,0-88.2c0-1-2.3-0.6-2.3,0.3
			c0,28.2,0,56.5,0,84.7c0,1.1,0,2.3,0,3.4c0-1.4,2.6-0.5-1.2-0.8c-5.4-0.4-11,0-16.4,0c-18.5,0.1-37,0.1-55.4,0.2
			c-12.9,0-25.8,0.1-38.7,0.1C62.8,98.4,61.3,99.8,62.8,99.8L62.8,99.8z"/>
	</g>
	<g>
		<path class="st0" d="M29.2,9.2c34.4-0.4,68.9-0.9,103.3-1.3c9.4-0.1,18.8-0.2,28.2-0.4c3.6,0,12-1.8,15.3-0.2
			c1.8,0.9-0.1-0.8,0.8,0.7c0.8,1.5,0.1,5.4,0.1,7.1c0.2,9.5,0.4,19.1,0.5,28.6c0.4,18.5,1.3,37.1,1.1,55.7c0,1.8,1,0.5,0.4,0.8
			c-1.1,0.6-4.2,0-5.4,0c-7.3,0-14.5-0.1-21.8-0.1c-39.1-0.2-78.2-0.4-117.4-0.6c-4.9,0-4.5,0.8-4.5-4c0-10.1,0-20.2,0-30.3
			c0-18.8,0-37.6,0-56.3c0-0.2-1.2,0-1.2,0.3c0,30.2,0,60.5,0,90.7c0,0.1,0.2,0.1,0.2,0.1c43.6,0.2,87.2,0.5,130.9,0.7
			c6.3,0,12.6,0.1,18.8,0.1c0.2,0,1-0.1,0.9-0.4c-0.6-31.1-1.2-62.3-1.8-93.4c0-0.1-0.3-0.1-0.3-0.1C134.5,7.3,91.4,7.9,48.3,8.4
			c-6.2,0.1-12.4,0.2-18.5,0.2C29.4,8.7,28.5,9.2,29.2,9.2z"/>
	</g>
	<g>
		<path class="st0" d="M186.3,104.1c-0.6-28-1.2-55.9-1.9-83.9c-0.1-4.2,0-8.4-0.3-12.5c-0.5-7-3.9-7.6-10.4-7.6
			c-10.8-0.1-21.6,0.2-32.4,0.3C107.5,0.6,73.6,0.9,39.7,1.1c-7.4,0.1-16.6-2.3-16.8,7.7c-0.3,12.7,0.4,25.4,0.5,38.1
			c0.2,18.3,0.3,36.5,0.6,54.8c0,2.4,0.4,3.6-1,5.3c-3.1,4-9.3,7.3-13.1,10.6c-2.4,2.1-7.8,5.3-9.4,8.3c-0.8,1.7-0.5,3.9-0.5,5.9
			c0,0.1,0.3,0.1,0.3,0.1c62.1,0.3,124.2,0.7,186.3,1c8.7,0,17.4,0.1,26.1,0.1c0.2,0,0.8-0.1,0.8-0.4c0-1.7,0.5-4.2-0.3-5.6
			c-1.3-2.2-5.6-4.4-7.6-6c-6.3-4.9-13-12.1-20.1-15.7c-4.8-2.4-12.6-0.9-18-0.9c-36.1,0-72.2-0.1-108.3-0.1c-10.4,0-20.8,0-31.3,0
			c-0.4,0-1.2,0.5-0.5,0.5c23.9,0,47.9,0.1,71.8,0.1c17.5,0,35,0,52.6,0.1c6.5,0,13.1,0,19.6,0c3.4,0,7.7-0.7,11,0
			c2.6,0.5,4.7,2.8,7.3,4.8c6.6,5.1,13.2,10.3,19.7,15.4c1.8,1.4,2.4,1.7,3,3.7c0.5,1.7,0.3,3.5,0.3,3.5c-1.4,0.9-6.2,0-7.8,0
			c-28.9-0.2-57.8-0.3-86.7-0.5c-32.6-0.2-65.2-0.4-97.8-0.5c-4.5,0-9-0.1-13.5-0.1c-0.9,0-5,0.6-5.8,0c-0.2-0.2,0.3-4.8,0.6-5.5
			c1.7-3.4,7.8-7,10.7-9.5c3.9-3.3,11.8-7.2,13-11.9c1.3-5-0.2-12.3-0.2-17.4c-0.1-8.8-0.2-17.6-0.3-26.5c-0.2-15.7-0.3-31.3-0.6-47
			c0-2.2-0.5-4.9,0-7c1.1-4.6,3.2-4.6,6.6-5c4.8-0.5,9.9-0.1,14.7-0.1c17.2-0.1,34.4-0.3,51.7-0.4C115,1.1,133,0.9,151,0.8
			c5.8,0,11.7-0.1,17.5-0.2c6.4-0.1,13.9-1,14.5,7.1c2.3,28.9,1.4,58.5,2,87.5c0.1,3,0.1,6.1,0.2,9.1
			C185.2,104.6,186.3,104.4,186.3,104.1L186.3,104.1z"/>
	</g>
	<g>
		<path class="st0" d="M213.2,127.2c-62.1-0.3-124.2-0.7-186.3-1c-8.7,0-17.4-0.1-26.1-0.1c-0.4,0-1.2,0.6-0.5,0.6
			c62.1,0.3,124.2,0.7,186.3,1c8.7,0,17.4,0.1,26.1,0.1C213.1,127.8,214,127.2,213.2,127.2L213.2,127.2z"/>
	</g>
</g>
<g>
	<g>
		<path class="st1" d="M49.6,51c0.1,3.8-0.1,8.2,1.1,11.8c1,3,3.7,3.6,6.6,3.7c0.4,0,1.3-0.6,0.5-0.6c-4.2,0-5.9-1.9-6.4-5.9
			c-0.4-3.1-0.5-6.2-0.6-9.3C50.8,50.4,49.6,50.6,49.6,51L49.6,51z"/>
	</g>
</g>
<g>
	<g>
		<path class="st1" d="M159.1,56.1c-0.1-3-0.1-6.5-1.1-9.4c-1-3-3.7-3.6-6.6-3.6c-0.4,0-1.3,0.6-0.5,0.6c4,0,5.8,1.6,6.3,5.4
			c0.4,2.4,0.5,4.9,0.6,7.3C157.9,56.8,159.2,56.5,159.1,56.1L159.1,56.1z"/>
	</g>
</g>
<g>
	<g>
		<path class="st2" d="M48.6,49.3c0,3.2,0.3,6.4,0.7,9.5c0.2,2.2,0.2,5.3,2,6.9c1.7,1.5,4.4,1.4,6.6,1.4c7.7,0.1,15.3,0.1,23,0.1
			c20.7,0,41.3,0,62-0.1c4.4,0,11.6,1.1,14.7-2.7c3.1-3.8,2.7-11.3,2.2-15.9c-0.6-5-5-6.4-9.5-6.7c-6.2-0.4-12.6,0-18.8,0.1
			c-11,0.2-21.9,0.4-32.9,0.6c-11.2,0.2-22.4,0.4-33.5,0.6C59.5,43.2,49.2,41.5,48.6,49.3c0,0.3,0.6,0.3,0.6,0
			c0.4-5.1,4.9-5.5,8.8-5.5c2.8,0,5.6-0.1,8.4-0.1c8.7-0.2,17.5-0.3,26.2-0.5c17.3-0.3,34.6-0.7,52-0.8c2.9,0,5.9-0.2,8.7,0.5
			c7,1.8,6.3,10,5.5,15.9c-0.7,5.6-3.6,7.8-9,7.9c-2.1,0-4.2,0-6.2,0c-17.8,0.1-35.7,0.1-53.5,0.1c-9.2,0-18.4,0-27.5-0.1
			c-2.2,0-4.4,0.1-6.6-0.1c-3.6-0.3-5.3-1.7-5.8-5.2c-0.6-4-0.9-8.1-1-12.2C49.3,48.9,48.6,49,48.6,49.3z"/>
	</g>
</g>
<g>
	<path class="st0" d="M57.1,26.4l-0.6,2.9h0.1c0.3,0,0.5-0.1,0.7-0.2c0.2-0.1,0.4-0.3,0.6-0.5c0.2-0.2,0.3-0.5,0.4-0.7
		c0.1-0.3,0.1-0.5,0.1-0.8c0-0.2,0-0.3-0.1-0.5s-0.1-0.3-0.2-0.4c-0.1-0.1-0.3-0.2-0.5-0.3c-0.2-0.1-0.5-0.1-0.8-0.1
		c-0.4,0-0.9,0.1-1.3,0.2c-0.4,0.1-0.7,0.3-1,0.6c-0.3,0.3-0.5,0.6-0.7,1c-0.2,0.4-0.3,0.8-0.3,1.3c0,0.2,0,0.3,0,0.4
		c0,0.1,0,0.2,0.1,0.2c0,0.1,0,0.1,0.1,0.2c0,0,0,0.1,0,0.1c-0.4,0-0.8-0.1-1-0.3c-0.2-0.2-0.4-0.5-0.4-0.9c0-0.4,0.1-0.9,0.4-1.3
		c0.3-0.4,0.6-0.8,1-1.1c0.4-0.3,0.9-0.6,1.5-0.8c0.6-0.2,1.1-0.3,1.7-0.3c0.5,0,0.9,0.1,1.2,0.2c0.3,0.1,0.6,0.3,0.9,0.5
		c0.2,0.2,0.4,0.4,0.5,0.7c0.1,0.2,0.2,0.5,0.2,0.8c0,0.4-0.1,0.8-0.4,1.2c-0.2,0.4-0.6,0.7-1,1c0.3,0.1,0.6,0.3,0.7,0.5
		c0.1,0.2,0.2,0.5,0.2,0.8c0,0.3,0,0.5-0.1,0.8c-0.1,0.3-0.1,0.6-0.2,0.9c-0.1,0.3-0.2,0.6-0.2,0.8c-0.1,0.3-0.1,0.5-0.1,0.7
		c0,0.2,0,0.4,0.1,0.5c0.1,0.2,0.2,0.3,0.4,0.3c-0.3,0.1-0.5,0.1-0.7,0.2C58.2,35,58,35,57.9,35c-0.2,0-0.4,0-0.5-0.1
		c-0.1-0.1-0.2-0.1-0.3-0.2c-0.1-0.1-0.1-0.2-0.1-0.3c0-0.1,0-0.2,0-0.3c0-0.2,0-0.5,0.1-0.7c0.1-0.3,0.1-0.6,0.2-0.9
		c0.1-0.3,0.2-0.6,0.2-0.9c0.1-0.3,0.1-0.6,0.1-0.8c0-0.3-0.1-0.5-0.2-0.6C57.3,30,57.1,30,56.8,30c-0.1,0-0.1,0-0.2,0
		c-0.1,0-0.1,0-0.2,0l-1,4.8h-1.8l1.7-8.1L57.1,26.4z"/>
	<path class="st0" d="M61.9,32.8c0,0.4,0.1,0.7,0.2,0.9c0.2,0.1,0.4,0.2,0.7,0.2c0.3,0,0.5,0,0.7-0.1c0.2-0.1,0.4-0.2,0.6-0.3
		c0.2-0.1,0.3-0.3,0.5-0.4c0.2-0.2,0.3-0.3,0.5-0.5h0.4c-0.2,0.3-0.4,0.6-0.6,0.9c-0.2,0.3-0.5,0.5-0.8,0.8c-0.3,0.2-0.6,0.4-1,0.5
		c-0.3,0.1-0.7,0.2-1.2,0.2c-0.6,0-1.1-0.2-1.5-0.5c-0.4-0.3-0.5-0.8-0.5-1.6c0-0.2,0-0.5,0.1-0.8c0.1-0.3,0.1-0.6,0.2-1
		c0.1-0.3,0.2-0.7,0.4-1c0.2-0.3,0.4-0.6,0.7-0.9c0.3-0.3,0.6-0.5,0.9-0.6c0.3-0.2,0.7-0.2,1.2-0.2c0.3,0,0.5,0,0.7,0.1
		c0.2,0.1,0.3,0.2,0.4,0.3c0.1,0.1,0.2,0.2,0.2,0.4s0.1,0.3,0.1,0.5c0,0.4-0.1,0.7-0.2,1c-0.2,0.3-0.4,0.6-0.6,0.8
		c-0.3,0.2-0.6,0.4-0.9,0.6c-0.4,0.1-0.7,0.2-1.1,0.2c0,0.1,0,0.2,0,0.3C61.9,32.6,61.9,32.7,61.9,32.8z M63.9,29.6
		c0-0.2,0-0.3-0.1-0.4c0-0.1-0.1-0.1-0.2-0.1c-0.2,0-0.3,0.1-0.5,0.2c-0.2,0.2-0.3,0.3-0.4,0.6c-0.1,0.2-0.3,0.5-0.4,0.8
		c-0.1,0.3-0.2,0.6-0.3,0.9c0.2,0,0.5-0.1,0.7-0.2c0.2-0.1,0.4-0.3,0.6-0.5c0.2-0.2,0.3-0.4,0.4-0.6C63.8,30.1,63.9,29.8,63.9,29.6z
		"/>
	<path class="st0" d="M71.2,28.4l-0.9,4.3c0,0.1-0.1,0.3-0.1,0.4c0,0.2,0,0.3,0.1,0.4c0.1,0.1,0.2,0.1,0.4,0.1
		c0.2,0,0.5-0.1,0.6-0.3c0.2-0.2,0.3-0.5,0.4-0.8h0.5c-0.2,0.5-0.4,0.9-0.6,1.2c-0.2,0.3-0.5,0.5-0.7,0.7c-0.2,0.2-0.5,0.3-0.7,0.3
		c-0.2,0-0.4,0.1-0.6,0.1c-0.3,0-0.6-0.1-0.8-0.3c-0.2-0.2-0.4-0.5-0.4-0.8c-0.1,0.1-0.2,0.3-0.3,0.4c-0.1,0.1-0.3,0.3-0.4,0.4
		c-0.2,0.1-0.3,0.2-0.5,0.3c-0.2,0.1-0.4,0.1-0.6,0.1c-0.2,0-0.4,0-0.6-0.1c-0.2-0.1-0.4-0.2-0.5-0.4c-0.2-0.2-0.3-0.4-0.4-0.6
		c-0.1-0.3-0.1-0.6-0.1-1c0-0.3,0-0.6,0.1-0.9c0.1-0.3,0.1-0.7,0.3-1c0.1-0.3,0.3-0.7,0.4-1c0.2-0.3,0.4-0.6,0.6-0.8
		c0.2-0.2,0.5-0.4,0.8-0.6c0.3-0.1,0.6-0.2,1-0.2c0.1,0,0.2,0,0.3,0c0.1,0,0.2,0,0.3,0.1c0.1,0,0.2,0.1,0.3,0.2
		c0.1,0.1,0.1,0.2,0.1,0.4l0.1-0.6H71.2z M68.6,29.2c-0.3,0-0.5,0.1-0.7,0.4c-0.2,0.3-0.4,0.6-0.6,0.9c-0.2,0.4-0.3,0.7-0.4,1.1
		c-0.1,0.4-0.1,0.8-0.1,1.1c0,0.2,0,0.4,0.1,0.6c0,0.1,0.1,0.2,0.2,0.3c0.1,0.1,0.1,0.1,0.2,0.1c0.1,0,0.1,0,0.2,0
		c0.1,0,0.2,0,0.3-0.1c0.1,0,0.2-0.1,0.3-0.2c0.1-0.1,0.2-0.2,0.3-0.4c0.1-0.1,0.1-0.3,0.2-0.5l0.6-2.9c0,0,0-0.1,0-0.1
		c0-0.1-0.1-0.1-0.1-0.2c0-0.1-0.1-0.1-0.2-0.1S68.7,29.2,68.6,29.2z"/>
	<path class="st0" d="M78.5,25.9L77,32.8c0,0.1-0.1,0.3-0.1,0.4c0,0.2,0,0.3,0.1,0.4c0.1,0.1,0.2,0.1,0.4,0.1c0.2,0,0.5-0.1,0.6-0.3
		c0.2-0.2,0.3-0.5,0.4-0.8H79c-0.2,0.5-0.4,0.9-0.6,1.2c-0.2,0.3-0.5,0.5-0.7,0.7c-0.2,0.2-0.5,0.3-0.7,0.3c-0.2,0-0.4,0.1-0.6,0.1
		c-0.3,0-0.6-0.1-0.8-0.3c-0.2-0.2-0.4-0.5-0.4-0.8c-0.1,0.1-0.2,0.3-0.3,0.4c-0.1,0.1-0.3,0.3-0.4,0.4c-0.2,0.1-0.3,0.2-0.5,0.3
		c-0.2,0.1-0.4,0.1-0.6,0.1c-0.2,0-0.4,0-0.6-0.1c-0.2-0.1-0.4-0.2-0.5-0.4c-0.2-0.2-0.3-0.4-0.4-0.6c-0.1-0.3-0.1-0.6-0.1-1
		c0-0.3,0-0.6,0.1-0.9c0.1-0.3,0.1-0.7,0.3-1c0.1-0.3,0.3-0.7,0.4-1c0.2-0.3,0.4-0.6,0.6-0.8c0.2-0.2,0.5-0.4,0.8-0.6
		c0.3-0.1,0.6-0.2,1-0.2c0.1,0,0.2,0,0.3,0c0.1,0,0.2,0,0.3,0.1c0.1,0,0.2,0.1,0.3,0.2s0.1,0.2,0.1,0.4l0.6-2.9L78.5,25.9z
		 M75.3,29.2c-0.3,0-0.5,0.1-0.7,0.4c-0.2,0.3-0.4,0.6-0.6,0.9c-0.2,0.4-0.3,0.7-0.4,1.1c-0.1,0.4-0.1,0.8-0.1,1.1
		c0,0.2,0,0.4,0.1,0.6c0,0.1,0.1,0.2,0.2,0.3c0.1,0.1,0.1,0.1,0.2,0.1c0.1,0,0.1,0,0.2,0c0.1,0,0.2,0,0.3-0.1c0.1,0,0.2-0.1,0.3-0.2
		c0.1-0.1,0.2-0.2,0.3-0.4c0.1-0.1,0.1-0.3,0.2-0.5l0.6-2.9c0-0.1,0-0.2-0.1-0.3C75.7,29.2,75.5,29.2,75.3,29.2z"/>
	<path class="st0" d="M81.2,28.4l-0.9,4.3c0,0.1,0,0.2,0,0.3c0,0.1,0,0.3,0.1,0.4c0.1,0.1,0.2,0.2,0.3,0.2c0.2,0,0.5-0.1,0.6-0.3
		c0.2-0.2,0.3-0.5,0.4-0.8l0.9-4.1h1.9l-1.6,7.4c-0.1,0.5-0.2,0.8-0.4,1.1c-0.2,0.3-0.4,0.5-0.6,0.7c-0.2,0.2-0.4,0.3-0.7,0.3
		C80.9,38,80.7,38,80.5,38c-0.2,0-0.4,0-0.6-0.1c-0.2-0.1-0.3-0.2-0.5-0.3c-0.1-0.1-0.3-0.3-0.3-0.4C79,37,79,36.8,79,36.6
		c0-0.3,0.1-0.5,0.2-0.8c0.1-0.2,0.3-0.4,0.5-0.5c0.2-0.1,0.4-0.3,0.7-0.4c0.3-0.1,0.6-0.2,0.9-0.3l0.1-0.6
		c-0.3,0.3-0.5,0.5-0.8,0.6c-0.3,0.1-0.5,0.1-0.7,0.1c-0.4,0-0.7-0.1-1-0.4c-0.3-0.2-0.4-0.6-0.4-1.2c0-0.2,0-0.5,0.1-0.8l0.9-4.1
		H81.2z M79.7,36.5c0,0.1,0,0.2,0.1,0.3c0.1,0.1,0.2,0.1,0.4,0.1c0.1,0,0.3-0.1,0.4-0.2c0.1-0.1,0.3-0.4,0.3-0.8l0.2-0.8
		c-0.2,0.1-0.4,0.1-0.6,0.2c-0.2,0.1-0.3,0.2-0.4,0.3c-0.1,0.1-0.2,0.2-0.3,0.4C79.7,36.1,79.7,36.3,79.7,36.5z"/>
	<path class="st0" d="M90.6,26.4l-0.4,2h0.8L90.8,29H90l-0.8,3.8c0,0.1-0.1,0.3-0.1,0.4c0,0.2,0,0.3,0.1,0.4
		c0.1,0.1,0.2,0.1,0.4,0.1c0.2,0,0.5-0.1,0.7-0.3c0.2-0.2,0.4-0.5,0.5-0.8h0.5c-0.2,0.5-0.4,0.9-0.6,1.2c-0.2,0.3-0.5,0.5-0.7,0.7
		c-0.2,0.2-0.5,0.3-0.7,0.3c-0.2,0.1-0.4,0.1-0.6,0.1c-0.4,0-0.7-0.1-1-0.4c-0.3-0.2-0.4-0.6-0.4-1.2c0-0.2,0-0.5,0.1-0.8l0.8-3.6
		h-0.4l0.1-0.5h0.4l0.4-1.8L90.6,26.4z"/>
	<path class="st0" d="M94.2,28.4c1,0,1.5,0.6,1.6,1.7c0.1,0,0.2-0.1,0.3-0.2c0.1-0.1,0.2-0.2,0.2-0.2c0.1-0.1,0.1-0.2,0.2-0.3
		c0.1-0.1,0.1-0.2,0.1-0.2h0.4c-0.1,0.3-0.3,0.6-0.5,0.9c-0.2,0.3-0.5,0.6-0.8,0.8c0,0.6-0.1,1.2-0.3,1.7c-0.2,0.5-0.4,0.9-0.7,1.3
		c-0.3,0.3-0.6,0.6-0.9,0.8c-0.4,0.2-0.7,0.3-1.1,0.3c-0.3,0-0.6,0-0.8-0.1c-0.3-0.1-0.5-0.2-0.6-0.4c-0.2-0.2-0.3-0.4-0.4-0.6
		c-0.1-0.3-0.2-0.6-0.2-0.9c0-0.2,0-0.5,0.1-0.8c0.1-0.3,0.1-0.6,0.2-1c0.1-0.3,0.3-0.7,0.4-1c0.2-0.3,0.4-0.6,0.7-0.9
		c0.3-0.3,0.6-0.5,0.9-0.6C93.3,28.5,93.7,28.4,94.2,28.4z M93.2,33.7c0.2,0,0.3-0.1,0.5-0.2c0.2-0.1,0.3-0.3,0.4-0.5
		c0.1-0.2,0.2-0.5,0.4-0.8c0.1-0.3,0.2-0.7,0.2-1c-0.2-0.1-0.3-0.3-0.3-0.6c0-0.2,0-0.3,0.1-0.4c0.1-0.1,0.2-0.2,0.3-0.2
		c0-0.2-0.1-0.4-0.1-0.5c-0.1-0.1-0.2-0.2-0.4-0.2c-0.2,0-0.4,0.1-0.7,0.4c-0.2,0.3-0.4,0.6-0.5,0.9c-0.2,0.4-0.3,0.7-0.4,1.1
		c-0.1,0.4-0.1,0.8-0.1,1.1c0,0.2,0,0.4,0,0.5c0,0.1,0.1,0.2,0.1,0.3c0.1,0.1,0.1,0.1,0.2,0.2C93,33.7,93.1,33.7,93.2,33.7z"/>
	<path class="st0" d="M105.9,28.4l-1.3,5.9c0.4-0.1,0.7-0.3,1-0.6c0.3-0.3,0.5-0.7,0.6-1.2h0.5c-0.1,0.4-0.3,0.8-0.5,1.1
		c-0.2,0.3-0.4,0.5-0.6,0.7c-0.2,0.2-0.4,0.3-0.6,0.4c-0.2,0.1-0.4,0.2-0.6,0.2l-0.2,0.9c-0.1,0.5-0.2,0.8-0.4,1.1
		c-0.2,0.3-0.4,0.5-0.6,0.7c-0.2,0.2-0.4,0.3-0.7,0.3c-0.2,0.1-0.5,0.1-0.7,0.1c-0.4,0-0.7-0.1-1-0.3c-0.3-0.2-0.4-0.5-0.4-0.9
		c0-0.3,0.1-0.5,0.2-0.7c0.1-0.2,0.3-0.4,0.5-0.5c0.2-0.2,0.4-0.3,0.7-0.4s0.5-0.2,0.7-0.3l0.2-1.1c-0.2,0.2-0.4,0.4-0.7,0.6
		c-0.3,0.2-0.6,0.3-1,0.3c-0.2,0-0.4,0-0.6-0.1c-0.2-0.1-0.4-0.2-0.5-0.4c-0.2-0.2-0.3-0.4-0.4-0.6c-0.1-0.3-0.1-0.6-0.1-1
		c0-0.3,0-0.6,0.1-0.9c0.1-0.3,0.1-0.6,0.3-0.9c0.1-0.3,0.3-0.6,0.4-0.9c0.2-0.3,0.4-0.5,0.6-0.8c0.2-0.2,0.5-0.4,0.8-0.5
		c0.3-0.1,0.6-0.2,1-0.2c0.1,0,0.2,0,0.3,0c0.1,0,0.2,0,0.3,0.1c0.1,0,0.2,0.1,0.3,0.2c0.1,0.1,0.1,0.2,0.1,0.4l0.1-0.6H105.9z
		 M101.3,36.6c0,0.1,0,0.2,0.1,0.3c0.1,0.1,0.2,0.1,0.3,0.1c0.1,0,0.3-0.1,0.4-0.3c0.1-0.2,0.2-0.5,0.3-0.9l0.1-0.4
		c-0.2,0.1-0.3,0.1-0.5,0.2c-0.2,0.1-0.3,0.2-0.4,0.2c-0.1,0.1-0.2,0.2-0.3,0.3S101.3,36.5,101.3,36.6z M103.3,29.2
		c-0.3,0-0.5,0.1-0.7,0.4c-0.2,0.2-0.4,0.5-0.6,0.8c-0.2,0.3-0.3,0.7-0.4,1.1c-0.1,0.4-0.1,0.7-0.1,1c0,0.2,0,0.4,0.1,0.6
		c0,0.1,0.1,0.2,0.2,0.3c0.1,0.1,0.1,0.1,0.2,0.1c0.1,0,0.1,0,0.2,0c0.2,0,0.4-0.1,0.6-0.3c0.2-0.2,0.4-0.5,0.5-0.8l0.6-2.6
		c0-0.1,0-0.2-0.1-0.3C103.6,29.2,103.5,29.2,103.3,29.2z"/>
	<path class="st0" d="M108,32.8c0,0.4,0.1,0.7,0.2,0.9c0.2,0.1,0.4,0.2,0.7,0.2c0.3,0,0.5,0,0.7-0.1c0.2-0.1,0.4-0.2,0.6-0.3
		c0.2-0.1,0.3-0.3,0.5-0.4c0.2-0.2,0.3-0.3,0.5-0.5h0.4c-0.2,0.3-0.4,0.6-0.6,0.9c-0.2,0.3-0.5,0.5-0.8,0.8c-0.3,0.2-0.6,0.4-1,0.5
		c-0.3,0.1-0.7,0.2-1.2,0.2c-0.6,0-1.1-0.2-1.5-0.5c-0.4-0.3-0.5-0.8-0.5-1.6c0-0.2,0-0.5,0.1-0.8c0.1-0.3,0.1-0.6,0.2-1
		c0.1-0.3,0.2-0.7,0.4-1c0.2-0.3,0.4-0.6,0.7-0.9c0.3-0.3,0.6-0.5,0.9-0.6c0.3-0.2,0.7-0.2,1.2-0.2c0.3,0,0.5,0,0.7,0.1
		c0.2,0.1,0.3,0.2,0.4,0.3c0.1,0.1,0.2,0.2,0.2,0.4c0,0.1,0.1,0.3,0.1,0.5c0,0.4-0.1,0.7-0.2,1c-0.2,0.3-0.4,0.6-0.6,0.8
		c-0.3,0.2-0.6,0.4-0.9,0.6c-0.4,0.1-0.7,0.2-1.1,0.2c0,0.1,0,0.2,0,0.3C108,32.6,108,32.7,108,32.8z M109.9,29.6
		c0-0.2,0-0.3-0.1-0.4c0-0.1-0.1-0.1-0.2-0.1c-0.2,0-0.3,0.1-0.5,0.2c-0.2,0.2-0.3,0.3-0.4,0.6c-0.1,0.2-0.3,0.5-0.4,0.8
		c-0.1,0.3-0.2,0.6-0.3,0.9c0.2,0,0.5-0.1,0.7-0.2c0.2-0.1,0.4-0.3,0.6-0.5c0.2-0.2,0.3-0.4,0.4-0.6
		C109.9,30.1,109.9,29.8,109.9,29.6z"/>
	<path class="st0" d="M113,32.8c0,0.2-0.1,0.3-0.1,0.4c0,0.1,0,0.2,0.1,0.3c0.1,0.1,0.2,0.1,0.4,0.1c0,0,0.1,0,0.2,0
		c0.1,0,0.1,0,0.2,0c-0.1,0.3-0.2,0.5-0.3,0.7c-0.1,0.2-0.2,0.3-0.3,0.4c-0.1,0.1-0.2,0.1-0.4,0.2c-0.1,0-0.2,0-0.3,0
		c-0.5,0-0.8-0.1-1-0.4c-0.2-0.3-0.3-0.6-0.3-1c0-0.2,0-0.4,0.1-0.7L112,29h-0.4l0.1-0.5h0.4l0.4-1.8l1.9-0.3c0,0.2-0.1,0.4-0.1,0.6
		c0,0.2-0.1,0.4-0.1,0.6c-0.1,0.2-0.1,0.5-0.2,0.8h0.8l-0.1,0.5h-0.8L113,32.8z"/>
	<path class="st0" d="M122.8,32.5c-0.3,0.4-0.7,0.7-1,1c-0.3,0.3-0.7,0.5-1,0.6c-0.1,0.1-0.3,0.3-0.4,0.4c-0.2,0.1-0.3,0.2-0.5,0.2
		c-0.2,0.1-0.4,0.1-0.5,0.1c-0.2,0-0.3,0-0.5,0c-0.3,0-0.6,0-0.8-0.1c-0.2-0.1-0.4-0.2-0.6-0.4c-0.2-0.2-0.3-0.3-0.3-0.5
		c-0.1-0.2-0.1-0.4-0.1-0.6c0-0.3,0.1-0.5,0.2-0.8c0.1-0.2,0.3-0.3,0.5-0.4c0.4-0.6,0.7-1.3,0.9-1.9c0.2-0.6,0.5-1.3,0.7-1.9
		l1.9-0.3c0,0.8,0.1,1.5,0.1,2c0,0.5,0.1,0.9,0.1,1.2c0,0.3,0,0.6,0.1,0.8c0,0.2,0,0.4,0,0.6c0,0.2,0,0.3-0.1,0.5
		c0.4-0.2,0.7-0.4,0.9-0.6H122.8z M118.6,32.5c0,0.2-0.1,0.3-0.2,0.4c-0.1,0.1-0.2,0.2-0.4,0.2c-0.1,0-0.1,0-0.2,0
		c-0.1,0-0.1-0.1-0.1-0.1c0,0.3,0.1,0.5,0.2,0.7c0.1,0.1,0.3,0.2,0.6,0.2c0.1,0,0.3,0,0.4-0.1c0.1,0,0.3-0.1,0.4-0.2
		c0.1-0.1,0.2-0.2,0.2-0.4c0.1-0.2,0.1-0.3,0.1-0.6c0-0.2,0-0.3,0-0.5c0-0.2,0-0.3-0.1-0.5c0-0.2,0-0.5-0.1-0.8
		c0-0.3-0.1-0.7-0.1-1.2c-0.1,0.4-0.3,0.8-0.5,1.2c-0.2,0.4-0.4,0.8-0.6,1.2c0.1,0,0.2,0.1,0.2,0.2
		C118.6,32.3,118.6,32.4,118.6,32.5z"/>
	<path class="st0" d="M125.4,26.4l-0.4,2h0.8l-0.1,0.5h-0.8l-0.8,3.8c0,0.1-0.1,0.3-0.1,0.4c0,0.2,0,0.3,0.1,0.4
		c0.1,0.1,0.2,0.1,0.4,0.1c0.2,0,0.5-0.1,0.7-0.3c0.2-0.2,0.4-0.5,0.5-0.8h0.5c-0.2,0.5-0.4,0.9-0.6,1.2c-0.2,0.3-0.5,0.5-0.7,0.7
		c-0.2,0.2-0.5,0.3-0.7,0.3c-0.2,0.1-0.4,0.1-0.6,0.1c-0.4,0-0.7-0.1-1-0.4c-0.3-0.2-0.4-0.6-0.4-1.2c0-0.2,0-0.5,0.1-0.8l0.8-3.6
		h-0.4l0.1-0.5h0.4l0.4-1.8L125.4,26.4z"/>
	<path class="st0" d="M131.9,28.4l-0.9,4.3c0,0.1-0.1,0.3-0.1,0.4c0,0.2,0,0.3,0.1,0.4c0.1,0.1,0.2,0.1,0.4,0.1
		c0.2,0,0.5-0.1,0.6-0.3c0.2-0.2,0.3-0.5,0.4-0.8h0.5c-0.2,0.5-0.4,0.9-0.6,1.2c-0.2,0.3-0.5,0.5-0.7,0.7c-0.2,0.2-0.5,0.3-0.7,0.3
		c-0.2,0-0.4,0.1-0.6,0.1c-0.3,0-0.6-0.1-0.8-0.3c-0.2-0.2-0.4-0.5-0.4-0.8c-0.1,0.1-0.2,0.3-0.3,0.4c-0.1,0.1-0.3,0.3-0.4,0.4
		c-0.2,0.1-0.3,0.2-0.5,0.3c-0.2,0.1-0.4,0.1-0.6,0.1c-0.2,0-0.4,0-0.6-0.1c-0.2-0.1-0.4-0.2-0.5-0.4c-0.2-0.2-0.3-0.4-0.4-0.6
		c-0.1-0.3-0.1-0.6-0.1-1c0-0.3,0-0.6,0.1-0.9c0.1-0.3,0.1-0.7,0.3-1c0.1-0.3,0.3-0.7,0.4-1c0.2-0.3,0.4-0.6,0.6-0.8
		c0.2-0.2,0.5-0.4,0.8-0.6c0.3-0.1,0.6-0.2,1-0.2c0.1,0,0.2,0,0.3,0c0.1,0,0.2,0,0.3,0.1c0.1,0,0.2,0.1,0.3,0.2s0.1,0.2,0.1,0.4
		l0.1-0.6H131.9z M129.2,29.2c-0.3,0-0.5,0.1-0.7,0.4c-0.2,0.3-0.4,0.6-0.6,0.9c-0.2,0.4-0.3,0.7-0.4,1.1c-0.1,0.4-0.1,0.8-0.1,1.1
		c0,0.2,0,0.4,0.1,0.6c0,0.1,0.1,0.2,0.2,0.3c0.1,0.1,0.1,0.1,0.2,0.1c0.1,0,0.1,0,0.2,0c0.1,0,0.2,0,0.3-0.1c0.1,0,0.2-0.1,0.3-0.2
		s0.2-0.2,0.3-0.4c0.1-0.1,0.1-0.3,0.2-0.5l0.6-2.9c0,0,0-0.1,0-0.1c0-0.1-0.1-0.1-0.1-0.2c0-0.1-0.1-0.1-0.2-0.1
		C129.4,29.2,129.3,29.2,129.2,29.2z"/>
	<path class="st0" d="M135.1,28.4l-0.2,0.8c0.2-0.2,0.5-0.4,0.8-0.6c0.3-0.2,0.5-0.3,0.8-0.3c0.3,0,0.5,0.1,0.7,0.3
		c0.1,0.2,0.2,0.4,0.2,0.7c0,0.1,0,0.2-0.1,0.3c0,0.1-0.1,0.2-0.2,0.3s-0.2,0.2-0.3,0.2c-0.1,0.1-0.2,0.1-0.4,0.1
		c-0.2,0-0.3,0-0.4-0.1c-0.1-0.1-0.1-0.2-0.1-0.3c0-0.1,0-0.2-0.1-0.3c0-0.1-0.1-0.1-0.2-0.1c-0.2,0-0.3,0-0.5,0.1
		c-0.1,0.1-0.3,0.2-0.5,0.4l-1,4.9h-1.8l1.4-6.4H135.1z"/>
	<path class="st0" d="M140.4,26.4l-0.4,2h0.8l-0.1,0.5h-0.8l-0.8,3.8c0,0.1-0.1,0.3-0.1,0.4c0,0.2,0,0.3,0.1,0.4
		c0.1,0.1,0.2,0.1,0.4,0.1c0.2,0,0.5-0.1,0.7-0.3c0.2-0.2,0.4-0.5,0.5-0.8h0.5c-0.2,0.5-0.4,0.9-0.6,1.2c-0.2,0.3-0.5,0.5-0.7,0.7
		c-0.2,0.2-0.5,0.3-0.7,0.3c-0.2,0.1-0.4,0.1-0.6,0.1c-0.4,0-0.7-0.1-1-0.4c-0.3-0.2-0.4-0.6-0.4-1.2c0-0.2,0-0.5,0.1-0.8L138,29
		h-0.4l0.1-0.5h0.4l0.4-1.8L140.4,26.4z"/>
	<path class="st0" d="M142.4,32.8c0,0.4,0.1,0.7,0.2,0.9c0.2,0.1,0.4,0.2,0.7,0.2c0.3,0,0.5,0,0.7-0.1c0.2-0.1,0.4-0.2,0.6-0.3
		c0.2-0.1,0.3-0.3,0.5-0.4c0.2-0.2,0.3-0.3,0.5-0.5h0.4c-0.2,0.3-0.4,0.6-0.6,0.9c-0.2,0.3-0.5,0.5-0.8,0.8c-0.3,0.2-0.6,0.4-1,0.5
		c-0.3,0.1-0.7,0.2-1.2,0.2c-0.6,0-1.1-0.2-1.5-0.5c-0.4-0.3-0.5-0.8-0.5-1.6c0-0.2,0-0.5,0.1-0.8c0.1-0.3,0.1-0.6,0.2-1
		c0.1-0.3,0.2-0.7,0.4-1c0.2-0.3,0.4-0.6,0.7-0.9c0.3-0.3,0.6-0.5,0.9-0.6c0.3-0.2,0.7-0.2,1.2-0.2c0.3,0,0.5,0,0.7,0.1
		c0.2,0.1,0.3,0.2,0.4,0.3c0.1,0.1,0.2,0.2,0.2,0.4s0.1,0.3,0.1,0.5c0,0.4-0.1,0.7-0.2,1c-0.2,0.3-0.4,0.6-0.6,0.8
		c-0.3,0.2-0.6,0.4-0.9,0.6c-0.4,0.1-0.7,0.2-1.1,0.2c0,0.1,0,0.2,0,0.3C142.4,32.6,142.4,32.7,142.4,32.8z M144.3,29.6
		c0-0.2,0-0.3-0.1-0.4c0-0.1-0.1-0.1-0.2-0.1c-0.2,0-0.3,0.1-0.5,0.2c-0.2,0.2-0.3,0.3-0.4,0.6c-0.1,0.2-0.3,0.5-0.4,0.8
		c-0.1,0.3-0.2,0.6-0.3,0.9c0.2,0,0.5-0.1,0.7-0.2c0.2-0.1,0.4-0.3,0.6-0.5c0.2-0.2,0.3-0.4,0.4-0.6
		C144.3,30.1,144.3,29.8,144.3,29.6z"/>
	<path class="st0" d="M150.7,32.8c0,0.1,0,0.1,0,0.2c0,0.1,0,0.1,0,0.2c0,0.1,0,0.3,0.1,0.4c0.1,0.1,0.2,0.1,0.4,0.1
		c0.1,0,0.2,0,0.3,0c0.1,0,0.1,0,0.1-0.1c0,0.2-0.1,0.4-0.2,0.6c-0.1,0.2-0.2,0.3-0.3,0.4c-0.1,0.1-0.3,0.2-0.4,0.2
		c-0.2,0.1-0.3,0.1-0.5,0.1c-0.3,0-0.6-0.1-0.8-0.2c-0.2-0.2-0.4-0.4-0.5-0.8c-0.2,0.3-0.4,0.5-0.7,0.7c-0.3,0.2-0.7,0.3-1.1,0.3
		c-0.2,0-0.4,0-0.6-0.1c-0.2-0.1-0.4-0.2-0.5-0.4c-0.2-0.2-0.3-0.4-0.4-0.6c-0.1-0.3-0.1-0.6-0.1-1c0-0.3,0-0.6,0.1-0.9
		c0.1-0.3,0.1-0.7,0.3-1c0.1-0.3,0.3-0.7,0.4-1c0.2-0.3,0.4-0.6,0.6-0.8c0.2-0.2,0.5-0.4,0.8-0.6c0.3-0.1,0.6-0.2,1-0.2
		c0.1,0,0.2,0,0.3,0c0.1,0,0.2,0,0.3,0.1c0.1,0,0.2,0.1,0.3,0.2c0.1,0.1,0.1,0.2,0.1,0.3l0.6-2.9l1.9-0.3L150.7,32.8z M147.9,33.7
		c0.1,0,0.2,0,0.3-0.1c0.1,0,0.2-0.1,0.3-0.2c0.1-0.1,0.2-0.2,0.3-0.3c0.1-0.1,0.1-0.3,0.2-0.5l0.6-2.9c0-0.1-0.1-0.2-0.1-0.3
		c-0.1-0.1-0.2-0.2-0.4-0.2c-0.3,0-0.5,0.1-0.7,0.4c-0.2,0.3-0.4,0.6-0.6,0.9c-0.2,0.4-0.3,0.7-0.4,1.1c-0.1,0.4-0.1,0.8-0.1,1.1
		c0,0.2,0,0.4,0.1,0.6c0,0.1,0.1,0.2,0.2,0.3c0.1,0.1,0.1,0.1,0.2,0.1C147.8,33.7,147.9,33.7,147.9,33.7z"/>
	<path class="st0" d="M155.1,33.8c0,0.3-0.1,0.5-0.3,0.7c-0.2,0.2-0.4,0.3-0.7,0.3c-0.3,0-0.5-0.1-0.7-0.3c-0.2-0.2-0.3-0.4-0.3-0.7
		c0-0.3,0.1-0.5,0.3-0.7c0.2-0.2,0.4-0.3,0.7-0.3c0.3,0,0.5,0.1,0.7,0.3C155,33.3,155.1,33.5,155.1,33.8z M157.9,27.5
		c0,0.4-0.1,0.7-0.2,1c-0.1,0.3-0.3,0.5-0.5,0.7c-0.2,0.2-0.4,0.4-0.6,0.6c-0.2,0.2-0.5,0.4-0.7,0.6c-0.2,0.2-0.4,0.4-0.6,0.7
		c-0.2,0.2-0.3,0.5-0.4,0.8H154c0-0.3,0.1-0.6,0.2-0.8c0.1-0.2,0.3-0.5,0.4-0.7c0.2-0.2,0.4-0.4,0.6-0.6c0.2-0.2,0.4-0.4,0.6-0.6
		c0.2-0.2,0.3-0.5,0.4-0.7c0.1-0.3,0.2-0.5,0.2-0.8c0-0.4-0.1-0.6-0.2-0.8c-0.2-0.1-0.3-0.2-0.5-0.2c-0.1,0-0.3,0-0.4,0.1
		c-0.1,0.1-0.2,0.1-0.3,0.2c-0.1,0.1-0.2,0.2-0.2,0.3c-0.1,0.1-0.1,0.3-0.1,0.4s0,0.3,0.1,0.5c0.1,0.2,0.2,0.3,0.4,0.4
		c-0.1,0.2-0.2,0.3-0.4,0.4c-0.2,0.1-0.3,0.1-0.5,0.1c-0.2,0-0.5-0.1-0.7-0.3c-0.2-0.2-0.3-0.4-0.3-0.8c0-0.2,0-0.4,0.1-0.7
		c0.1-0.2,0.2-0.5,0.5-0.7c0.2-0.2,0.5-0.4,0.8-0.5c0.3-0.1,0.8-0.2,1.3-0.2c0.4,0,0.7,0,1,0.1c0.3,0.1,0.5,0.2,0.6,0.3
		c0.1,0.1,0.3,0.3,0.3,0.5C157.9,27.1,157.9,27.3,157.9,27.5z"/>
</g>
<g>
	<path class="st0" d="M61,55.9l1.2-0.2c0,0.1,0,0.2,0,0.3c0,0.1,0,0.2,0,0.3c0,0.1,0,0.2,0.1,0.3c0,0.1,0.1,0.1,0.1,0.2
		s0.1,0.1,0.2,0.1c0.2,0,0.4-0.2,0.4-0.5c0-0.4-0.2-0.8-0.7-1.3L62,54.8c-0.1-0.1-0.2-0.2-0.3-0.2c-0.1-0.1-0.2-0.2-0.3-0.3
		c-0.1-0.1-0.2-0.2-0.2-0.3s-0.1-0.2-0.1-0.4c0-0.1-0.1-0.3-0.1-0.5c0-0.5,0.2-0.9,0.5-1.2c0.3-0.3,0.7-0.4,1.2-0.4
		c0.4,0,0.8,0.2,1.1,0.5c0.3,0.3,0.4,0.7,0.4,1.1l0,0c0,0,0,0.1,0,0.1L63,53.4c0,0,0-0.1,0-0.1c0-0.1,0-0.1,0-0.1c0-0.1,0-0.2,0-0.2
		c0-0.1,0-0.1-0.1-0.2s-0.1-0.1-0.1-0.2c-0.1,0-0.1-0.1-0.2-0.1c-0.1,0-0.2,0.1-0.3,0.2c-0.1,0.1-0.1,0.2-0.1,0.4
		c0,0.1,0,0.2,0.1,0.3c0,0.1,0.1,0.2,0.2,0.3c0.1,0.1,0.2,0.2,0.2,0.2s0.2,0.1,0.3,0.2c0.1,0.1,0.2,0.2,0.2,0.2
		c0.2,0.2,0.3,0.3,0.4,0.4c0.1,0.1,0.2,0.3,0.3,0.4c0.1,0.2,0.2,0.3,0.2,0.5c0.1,0.2,0.1,0.4,0.1,0.6c0,0.4-0.1,0.8-0.4,1
		s-0.7,0.4-1.1,0.4c-0.3,0-0.5-0.1-0.7-0.2c-0.2-0.1-0.4-0.2-0.5-0.4c-0.1-0.2-0.2-0.4-0.3-0.6C61.1,56.4,61,56.1,61,55.9z"/>
	<path class="st0" d="M64.6,56.5v-1.9c0-0.5,0.1-0.8,0.3-1.1c0.2-0.3,0.6-0.4,1-0.4c0.5,0,0.8,0.1,1,0.4c0.2,0.3,0.3,0.6,0.3,1.1V55
		h-1.1v-0.5c0-0.2,0-0.3,0-0.4c0-0.1-0.1-0.1-0.2-0.1c-0.1,0-0.2,0.1-0.2,0.3v2.1c0,0.2,0.1,0.4,0.2,0.4c0.1,0,0.1,0,0.1,0
		c0,0,0.1-0.1,0.1-0.1s0-0.1,0-0.2c0-0.1,0-0.1,0-0.2v-0.5h1.1v0.6c0,0.2-0.1,0.5-0.2,0.6c-0.1,0.2-0.3,0.3-0.5,0.4
		c-0.2,0.1-0.4,0.1-0.7,0.1c-0.4,0-0.7-0.1-0.9-0.3C64.8,57.2,64.6,56.9,64.6,56.5z"/>
	<path class="st0" d="M67.8,57.6v-6h1.1v2c0.1-0.1,0.2-0.2,0.4-0.3s0.3-0.1,0.5-0.1c0.2,0,0.3,0,0.4,0.1c0.1,0.1,0.2,0.2,0.3,0.4
		c0.1,0.1,0.1,0.3,0.1,0.4v3.5h-1.1v-3.2c0,0,0,0,0-0.1s0-0.1,0-0.1s0,0,0-0.1c0,0,0-0.1,0-0.1c0,0,0,0,0-0.1c0,0,0,0,0,0
		c0,0,0,0-0.1,0c0,0-0.1,0-0.1,0.1c-0.1,0-0.1,0.1-0.1,0.1c0,0-0.1,0.1-0.1,0.1v3.3H67.8z"/>
	<path class="st0" d="M71,56.5v-1.8c0-0.5,0.1-0.8,0.3-1.1c0.2-0.3,0.6-0.4,1-0.4c0.5,0,0.8,0.1,1,0.4s0.3,0.6,0.3,1.1v0.9h-1.5v1
		c0,0.2,0.1,0.4,0.2,0.4c0.2,0,0.2-0.1,0.2-0.4V56h1.1v0.5c0,0.4-0.1,0.7-0.4,0.9s-0.6,0.3-0.9,0.3s-0.7-0.1-0.9-0.3
		C71.2,57.1,71,56.8,71,56.5z M72.2,55h0.4v-0.6c0-0.2-0.1-0.3-0.2-0.3c-0.1,0-0.2,0.1-0.2,0.3V55z"/>
	<path class="st0" d="M74.2,56.8v-2.6c0-0.3,0.1-0.5,0.3-0.7s0.4-0.3,0.6-0.3c0.1,0,0.3,0,0.4,0.1c0.1,0.1,0.2,0.2,0.3,0.3v-1.9h1.1
		v6h-1.1v-0.3c-0.1,0.1-0.2,0.2-0.3,0.3c-0.1,0.1-0.3,0.1-0.4,0.1c-0.2,0-0.5-0.1-0.6-0.3C74.3,57.3,74.2,57,74.2,56.8z M75.8,56.6
		v-2.4c-0.1-0.2-0.2-0.2-0.3-0.2c-0.1,0-0.2,0.1-0.2,0.3v2.2c0,0.1,0,0.1,0,0.1c0,0,0,0.1,0.1,0.1c0,0,0.1,0.1,0.1,0.1
		C75.6,56.9,75.7,56.8,75.8,56.6z"/>
	<path class="st0" d="M77.5,56.8v-3.5h1.1v3.2c0,0.2,0.1,0.4,0.2,0.4c0.1,0,0.2-0.1,0.3-0.2v-3.3h1.1v4.3h-1.1v-0.4
		c-0.1,0.1-0.2,0.3-0.4,0.3c-0.2,0.1-0.3,0.1-0.5,0.1c-0.2,0-0.4-0.1-0.6-0.3C77.6,57.2,77.5,57,77.5,56.8z"/>
	<path class="st0" d="M80.9,57.6v-6H82v6H80.9z"/>
	<path class="st0" d="M82.6,56.5v-1.8c0-0.5,0.1-0.8,0.3-1.1c0.2-0.3,0.6-0.4,1-0.4c0.5,0,0.8,0.1,1,0.4s0.3,0.6,0.3,1.1v0.9h-1.5v1
		c0,0.2,0.1,0.4,0.2,0.4c0.2,0,0.2-0.1,0.2-0.4V56h1.1v0.5c0,0.4-0.1,0.7-0.4,0.9s-0.6,0.3-0.9,0.3s-0.7-0.1-0.9-0.3
		C82.7,57.1,82.6,56.8,82.6,56.5z M83.7,55h0.4v-0.6c0-0.2-0.1-0.3-0.2-0.3c-0.1,0-0.2,0.1-0.2,0.3V55z"/>
	<path class="st0" d="M88.9,57.6l-0.1-0.4c-0.1,0.2-0.2,0.3-0.3,0.4c-0.1,0.1-0.3,0.1-0.5,0.1c-0.2,0-0.3,0-0.4-0.1
		s-0.2-0.1-0.3-0.3c-0.1-0.1-0.1-0.2-0.1-0.3c0-0.1,0-0.2,0-0.4c0-0.2,0-0.3,0-0.4c0-0.1,0.1-0.2,0.1-0.3c0-0.1,0.1-0.2,0.2-0.3
		c0.1-0.1,0.2-0.2,0.2-0.2c0.1-0.1,0.2-0.1,0.3-0.2c0.1-0.1,0.2-0.1,0.3-0.2c0.1,0,0.2-0.1,0.4-0.2v-0.4c0-0.2,0-0.3-0.1-0.3
		c0-0.1-0.1-0.1-0.2-0.1c-0.1,0-0.1,0-0.2,0c0,0-0.1,0.1-0.1,0.1c0,0.1,0,0.1,0,0.1c0,0,0,0.1,0,0.2v0.2h-1.1c0-0.5,0.1-0.9,0.4-1.1
		c0.3-0.3,0.6-0.4,1.1-0.4c0.3,0,0.6,0.1,0.9,0.4c0.3,0.2,0.4,0.5,0.4,0.9v2.1c0,0.4,0,0.7,0.1,1.2H88.9z M88.7,56.6v-1.1
		c-0.4,0.3-0.6,0.6-0.6,1c0,0.1,0,0.2,0.1,0.2c0,0.1,0.1,0.1,0.2,0.1c0,0,0.1,0,0.1,0c0,0,0.1-0.1,0.1-0.1
		C88.6,56.7,88.6,56.7,88.7,56.6z"/>
	<path class="st0" d="M91.6,55.9l1.2-0.2c0,0.1,0,0.2,0,0.3c0,0.1,0,0.2,0,0.3c0,0.1,0,0.2,0.1,0.3c0,0.1,0.1,0.1,0.1,0.2
		c0.1,0,0.1,0.1,0.2,0.1c0.2,0,0.4-0.2,0.4-0.5c0-0.4-0.2-0.8-0.7-1.3l-0.4-0.3c-0.1-0.1-0.2-0.2-0.3-0.2c-0.1-0.1-0.2-0.2-0.3-0.3
		c-0.1-0.1-0.2-0.2-0.2-0.3c-0.1-0.1-0.1-0.2-0.1-0.4c0-0.1-0.1-0.3-0.1-0.5c0-0.5,0.2-0.9,0.5-1.2c0.3-0.3,0.7-0.4,1.2-0.4
		c0.4,0,0.8,0.2,1.1,0.5c0.3,0.3,0.4,0.7,0.4,1.1l0,0c0,0,0,0.1,0,0.1l-1.3,0.2c0,0,0-0.1,0-0.1c0-0.1,0-0.1,0-0.1
		c0-0.1,0-0.2,0-0.2c0-0.1,0-0.1-0.1-0.2c0-0.1-0.1-0.1-0.1-0.2c-0.1,0-0.1-0.1-0.2-0.1c-0.1,0-0.2,0.1-0.3,0.2
		c-0.1,0.1-0.1,0.2-0.1,0.4c0,0.1,0,0.2,0.1,0.3c0,0.1,0.1,0.2,0.2,0.3c0.1,0.1,0.2,0.2,0.2,0.2s0.2,0.1,0.3,0.2
		c0.1,0.1,0.2,0.2,0.2,0.2c0.2,0.2,0.3,0.3,0.4,0.4c0.1,0.1,0.2,0.3,0.3,0.4c0.1,0.2,0.2,0.3,0.2,0.5c0.1,0.2,0.1,0.4,0.1,0.6
		c0,0.4-0.1,0.8-0.4,1s-0.7,0.4-1.1,0.4c-0.3,0-0.5-0.1-0.7-0.2c-0.2-0.1-0.4-0.2-0.5-0.4c-0.1-0.2-0.2-0.4-0.3-0.6
		C91.6,56.4,91.6,56.1,91.6,55.9z"/>
	<path class="st0" d="M95.2,56.5v-1.8c0-0.5,0.1-0.8,0.3-1.1s0.6-0.4,1-0.4c0.5,0,0.8,0.1,1,0.4s0.3,0.6,0.3,1.1v0.9h-1.5v1
		c0,0.2,0.1,0.4,0.2,0.4c0.2,0,0.2-0.1,0.2-0.4V56h1.1v0.5c0,0.4-0.1,0.7-0.4,0.9c-0.3,0.2-0.6,0.3-0.9,0.3c-0.4,0-0.7-0.1-0.9-0.3
		S95.2,56.8,95.2,56.5z M96.3,55h0.4v-0.6c0-0.2-0.1-0.3-0.2-0.3c-0.1,0-0.2,0.1-0.2,0.3V55z"/>
	<path class="st0" d="M98.4,57.6v-4.3h1.1v0.4c0.2-0.3,0.4-0.4,0.6-0.4c0.1,0,0.2,0,0.3,0v0.9c-0.2,0-0.4,0-0.4,0
		c-0.2,0-0.3,0-0.3,0.1c-0.1,0.1-0.1,0.2-0.1,0.4v2.9H98.4z"/>
	<path class="st0" d="M101.4,57.6l-0.9-4.3h1.1l0.4,2.9l0.4-2.9h1.1l-0.9,4.3H101.4z"/>
	<path class="st0" d="M103.7,52.9v-1h1.1v1H103.7z M103.7,57.6v-4.3h1.1v4.3H103.7z"/>
	<path class="st0" d="M105.4,56.5v-1.9c0-0.5,0.1-0.8,0.3-1.1s0.6-0.4,1-0.4c0.5,0,0.8,0.1,1,0.4c0.2,0.3,0.3,0.6,0.3,1.1V55H107
		v-0.5c0-0.2,0-0.3,0-0.4c0-0.1-0.1-0.1-0.2-0.1c-0.1,0-0.2,0.1-0.2,0.3v2.1c0,0.2,0.1,0.4,0.2,0.4c0.1,0,0.1,0,0.1,0
		c0,0,0.1-0.1,0.1-0.1c0-0.1,0-0.1,0-0.2s0-0.1,0-0.2v-0.5h1.1v0.6c0,0.2-0.1,0.5-0.2,0.6c-0.1,0.2-0.3,0.3-0.5,0.4
		c-0.2,0.1-0.4,0.1-0.7,0.1c-0.4,0-0.7-0.1-0.9-0.3C105.6,57.2,105.4,56.9,105.4,56.5z"/>
	<path class="st0" d="M108.5,56.5v-1.8c0-0.5,0.1-0.8,0.3-1.1c0.2-0.3,0.6-0.4,1-0.4c0.5,0,0.8,0.1,1,0.4s0.3,0.6,0.3,1.1v0.9h-1.5
		v1c0,0.2,0.1,0.4,0.2,0.4c0.2,0,0.2-0.1,0.2-0.4V56h1.1v0.5c0,0.4-0.1,0.7-0.4,0.9s-0.6,0.3-0.9,0.3s-0.7-0.1-0.9-0.3
		C108.6,57.1,108.5,56.8,108.5,56.5z M109.6,55h0.4v-0.6c0-0.2-0.1-0.3-0.2-0.3c-0.1,0-0.2,0.1-0.2,0.3V55z"/>
</g>
<g>
	<path class="st0" d="M59.8,76.7L59.2,73h0.5l0.3,1.7l0.1,1.1l0.1-1.1l0.3-1.7H61l0.3,1.7l0.1,1.1l0.1-1.1l0.3-1.7h0.5l-0.7,3.7
		h-0.5L60.9,75l-0.1-1.1L60.6,75l-0.3,1.7H59.8z"/>
	<path class="st0" d="M63.3,76.7c-0.1,0-0.2,0-0.3-0.1c-0.1,0-0.2-0.1-0.2-0.2c-0.1-0.1-0.1-0.2-0.1-0.3c0-0.1-0.1-0.2-0.1-0.3
		c0-0.1,0-0.2,0-0.4c0-0.1,0-0.2,0-0.3c0-0.1,0-0.3,0-0.4c0-0.1,0-0.2,0.1-0.3c0-0.1,0.1-0.2,0.1-0.2c0.1-0.1,0.1-0.1,0.2-0.2
		c0.1,0,0.2-0.1,0.3-0.1c0.1,0,0.2,0,0.3,0c0.1,0,0.2,0.1,0.2,0.1c0.1,0.1,0.1,0.1,0.1,0.2c0,0.1,0.1,0.2,0.1,0.3c0,0.1,0,0.2,0,0.3
		c0,0.1,0,0.2,0,0.3v0.1H63v0.1c0,0,0,0,0,0.1c0,0.1,0,0.1,0,0.2c0,0.1,0,0.1,0,0.2c0,0.1,0,0.1,0,0.2c0,0,0,0.1,0,0.1
		c0,0,0,0.1,0.1,0.1c0,0,0.1,0,0.1,0c0.1,0,0.1,0,0.1,0c0,0,0.1-0.1,0.1-0.1c0,0,0-0.1,0-0.1c0,0,0-0.1,0-0.2v-0.1h0.5v0.1
		c0,0.3-0.1,0.5-0.2,0.6C63.7,76.7,63.5,76.7,63.3,76.7z M63,75.1h0.5v-0.2c0-0.1,0-0.1,0-0.2c0-0.1,0-0.1,0-0.2
		c0-0.1,0-0.1-0.1-0.1c0,0-0.1,0-0.1,0c-0.1,0-0.1,0-0.1,0c0,0-0.1,0.1-0.1,0.1c0,0.1,0,0.1,0,0.2c0,0.1,0,0.1,0,0.2V75.1z"/>
	<path class="st0" d="M64.6,74l-0.1-0.3c0.1,0,0.2,0,0.2-0.1c0,0,0.1-0.1,0.1-0.2h-0.3V73H65c0,0.2,0,0.4,0,0.5c0,0.1,0,0.1,0,0.2
		s0,0.1,0,0.2c0,0.1,0,0.1-0.1,0.1c0,0-0.1,0.1-0.1,0.1C64.7,74,64.7,74,64.6,74z"/>
	<path class="st0" d="M65.5,76.7V74h0.5v0.4c0.1-0.1,0.1-0.2,0.2-0.3c0.1-0.1,0.2-0.1,0.3-0.1c0,0,0,0,0.1,0v0.6
		c-0.1,0-0.2-0.1-0.3-0.1c-0.1,0-0.2,0-0.3,0.1c-0.1,0.1-0.1,0.2-0.1,0.3v1.8H65.5z"/>
	<path class="st0" d="M67.7,76.7c-0.1,0-0.2,0-0.3-0.1c-0.1,0-0.2-0.1-0.2-0.2c-0.1-0.1-0.1-0.2-0.1-0.3c0-0.1-0.1-0.2-0.1-0.3
		c0-0.1,0-0.2,0-0.4c0-0.1,0-0.2,0-0.3c0-0.1,0-0.3,0-0.4c0-0.1,0-0.2,0.1-0.3c0-0.1,0.1-0.2,0.1-0.2c0.1-0.1,0.1-0.1,0.2-0.2
		c0.1,0,0.2-0.1,0.3-0.1c0.1,0,0.2,0,0.3,0c0.1,0,0.2,0.1,0.2,0.1c0.1,0.1,0.1,0.1,0.1,0.2c0,0.1,0.1,0.2,0.1,0.3c0,0.1,0,0.2,0,0.3
		c0,0.1,0,0.2,0,0.3v0.1h-1.1v0.1c0,0,0,0,0,0.1c0,0.1,0,0.1,0,0.2c0,0.1,0,0.1,0,0.2c0,0.1,0,0.1,0,0.2c0,0,0,0.1,0,0.1
		c0,0,0,0.1,0.1,0.1c0,0,0.1,0,0.1,0c0.1,0,0.1,0,0.1,0c0,0,0.1-0.1,0.1-0.1c0,0,0-0.1,0-0.1s0-0.1,0-0.2v-0.1h0.5v0.1
		c0,0.3-0.1,0.5-0.2,0.6C68.2,76.7,68,76.7,67.7,76.7z M67.4,75.1H68v-0.2c0-0.1,0-0.1,0-0.2c0-0.1,0-0.1,0-0.2c0-0.1,0-0.1-0.1-0.1
		c0,0-0.1,0-0.1,0c-0.1,0-0.1,0-0.1,0c0,0-0.1,0.1-0.1,0.1c0,0.1,0,0.1,0,0.2c0,0.1,0,0.1,0,0.2V75.1z"/>
	<path class="st0" d="M69.8,76.7V73h0.5v1.4c0.1-0.1,0.1-0.1,0.2-0.2c0,0,0.1-0.1,0.2-0.1c0.1,0,0.2-0.1,0.3-0.1
		c0.1,0,0.2,0,0.3,0.1s0.1,0.2,0.1,0.3v2.3h-0.5v-2c0-0.1,0-0.2,0-0.2c0,0-0.1-0.1-0.1-0.1c-0.1,0-0.2,0.1-0.3,0.2v2.1H69.8z"/>
	<path class="st0" d="M72.6,76.7c-0.1,0-0.2,0-0.3-0.1c-0.1,0-0.2-0.1-0.2-0.2c-0.1-0.1-0.1-0.2-0.1-0.3c0-0.1-0.1-0.2-0.1-0.3
		c0-0.1,0-0.2,0-0.4c0-0.1,0-0.2,0-0.3c0-0.1,0-0.3,0-0.4c0-0.1,0-0.2,0.1-0.3c0-0.1,0.1-0.2,0.1-0.2c0.1-0.1,0.1-0.1,0.2-0.2
		c0.1,0,0.2-0.1,0.3-0.1c0.1,0,0.2,0,0.3,0c0.1,0,0.2,0.1,0.2,0.1c0.1,0.1,0.1,0.1,0.1,0.2c0,0.1,0.1,0.2,0.1,0.3c0,0.1,0,0.2,0,0.3
		c0,0.1,0,0.2,0,0.3v0.1h-1.1v0.1c0,0,0,0,0,0.1c0,0.1,0,0.1,0,0.2c0,0.1,0,0.1,0,0.2c0,0.1,0,0.1,0,0.2c0,0,0,0.1,0,0.1
		c0,0,0,0.1,0.1,0.1c0,0,0.1,0,0.1,0c0.1,0,0.1,0,0.1,0c0,0,0.1-0.1,0.1-0.1c0,0,0-0.1,0-0.1s0-0.1,0-0.2v-0.1h0.5v0.1
		c0,0.3-0.1,0.5-0.2,0.6C73,76.7,72.8,76.7,72.6,76.7z M72.3,75.1h0.5v-0.2c0-0.1,0-0.1,0-0.2s0-0.1,0-0.2c0-0.1,0-0.1-0.1-0.1
		c0,0-0.1,0-0.1,0c-0.1,0-0.1,0-0.1,0c0,0-0.1,0.1-0.1,0.1c0,0.1,0,0.1,0,0.2c0,0.1,0,0.1,0,0.2V75.1z"/>
	<path class="st0" d="M73.8,76.7V74h0.5v0.4c0.1-0.1,0.1-0.2,0.2-0.3c0.1-0.1,0.2-0.1,0.3-0.1c0,0,0,0,0.1,0v0.6
		c-0.1,0-0.2-0.1-0.3-0.1c-0.1,0-0.2,0-0.3,0.1c-0.1,0.1-0.1,0.2-0.1,0.3v1.8H73.8z"/>
	<path class="st0" d="M75.9,76.7c-0.1,0-0.2,0-0.3-0.1c-0.1,0-0.2-0.1-0.2-0.2c-0.1-0.1-0.1-0.2-0.1-0.3c0-0.1-0.1-0.2-0.1-0.3
		c0-0.1,0-0.2,0-0.4c0-0.1,0-0.2,0-0.3c0-0.1,0-0.3,0-0.4c0-0.1,0-0.2,0.1-0.3s0.1-0.2,0.1-0.2c0.1-0.1,0.1-0.1,0.2-0.2
		c0.1,0,0.2-0.1,0.3-0.1c0.1,0,0.2,0,0.3,0c0.1,0,0.2,0.1,0.2,0.1c0.1,0.1,0.1,0.1,0.1,0.2c0,0.1,0.1,0.2,0.1,0.3c0,0.1,0,0.2,0,0.3
		c0,0.1,0,0.2,0,0.3v0.1h-1.1v0.1c0,0,0,0,0,0.1c0,0.1,0,0.1,0,0.2c0,0.1,0,0.1,0,0.2c0,0.1,0,0.1,0,0.2c0,0,0,0.1,0,0.1
		c0,0,0,0.1,0.1,0.1c0,0,0.1,0,0.1,0c0.1,0,0.1,0,0.1,0c0,0,0.1-0.1,0.1-0.1c0,0,0-0.1,0-0.1c0,0,0-0.1,0-0.2v-0.1h0.5v0.1
		c0,0.3-0.1,0.5-0.2,0.6S76.2,76.7,75.9,76.7z M75.7,75.1h0.5v-0.2c0-0.1,0-0.1,0-0.2c0-0.1,0-0.1,0-0.2c0-0.1,0-0.1-0.1-0.1
		c0,0-0.1,0-0.1,0c-0.1,0-0.1,0-0.1,0c0,0-0.1,0.1-0.1,0.1c0,0.1,0,0.1,0,0.2c0,0.1,0,0.1,0,0.2V75.1z"/>
	<path class="st0" d="M78,76.7V74h0.5v0.3c0.1-0.1,0.1-0.1,0.2-0.2c0,0,0.1-0.1,0.2-0.1c0.1,0,0.2-0.1,0.3-0.1c0.1,0,0.2,0,0.3,0.1
		c0.1,0.1,0.1,0.2,0.1,0.3v2.3H79v-2c0-0.1,0-0.2,0-0.2c0,0-0.1-0.1-0.2-0.1c0,0-0.1,0-0.1,0c0,0-0.1,0-0.1,0.1c0,0-0.1,0-0.1,0.1
		v2.1H78z"/>
	<path class="st0" d="M81.4,76.5c-0.1,0.2-0.3,0.2-0.6,0.2s-0.5-0.1-0.6-0.2c-0.1-0.2-0.2-0.4-0.2-0.7V75c0-0.3,0.1-0.6,0.2-0.7
		c0.1-0.2,0.3-0.2,0.6-0.2s0.5,0.1,0.6,0.2c0.1,0.2,0.2,0.4,0.2,0.7v0.8C81.6,76.1,81.5,76.3,81.4,76.5z M80.7,76.3
		C80.7,76.3,80.8,76.3,80.7,76.3c0.1,0,0.2,0,0.2,0c0,0,0.1,0,0.1,0c0,0,0,0,0-0.1c0,0,0-0.1,0-0.1c0,0,0-0.1,0-0.1c0,0,0-0.1,0-0.1
		c0,0,0-0.1,0-0.1V75c0-0.1,0-0.1,0-0.1c0,0,0-0.1,0-0.1c0,0,0-0.1,0-0.1c0,0,0-0.1,0-0.1c0,0,0-0.1,0-0.1c0,0,0,0-0.1,0
		c0,0-0.1,0-0.1,0s-0.1,0-0.1,0c0,0-0.1,0-0.1,0c0,0,0,0,0,0.1c0,0,0,0.1,0,0.1c0,0,0,0.1,0,0.1s0,0.1,0,0.1c0,0,0,0.1,0,0.1v0.8
		c0,0.1,0,0.1,0,0.1c0,0,0,0.1,0,0.1s0,0.1,0,0.1c0,0,0,0.1,0,0.1C80.6,76.2,80.6,76.2,80.7,76.3C80.6,76.3,80.7,76.3,80.7,76.3z"/>
	<path class="st0" d="M82.3,76.7L81.8,74h0.5l0.3,2l0.3-2h0.5l0.3,2l0.3-2h0.5l-0.5,2.7h-0.5l-0.3-1.8l-0.3,1.8H82.3z"/>
	<path class="st0" d="M84.7,77.2L84.6,77c0.1,0,0.2,0,0.2-0.1c0,0,0.1-0.1,0.1-0.2h-0.3v-0.5h0.5c0,0.2,0,0.4,0,0.5
		c0,0.1,0,0.1,0,0.2c0,0.1,0,0.1,0,0.2c0,0.1,0,0.1-0.1,0.1c0,0-0.1,0.1-0.1,0.1C84.9,77.2,84.8,77.2,84.7,77.2z"/>
	<path class="st0" d="M87.1,76.7c-0.2,0-0.4-0.1-0.5-0.2c-0.1-0.1-0.2-0.3-0.3-0.5l0.4-0.1c0.1,0.3,0.2,0.4,0.4,0.4
		c0.1,0,0.2,0,0.2-0.1c0,0,0.1-0.1,0.1-0.2c0-0.1,0-0.2-0.1-0.3l-0.5-0.4c-0.1,0-0.1-0.1-0.1-0.1c0,0-0.1-0.1-0.1-0.1
		c0-0.1-0.1-0.1-0.1-0.2c0-0.1,0-0.1,0-0.2c0-0.2,0.1-0.4,0.2-0.5c0.1-0.1,0.3-0.2,0.6-0.2c0.1,0,0.2,0,0.3,0.1
		c0.1,0,0.2,0.1,0.2,0.2c0.1,0.1,0.1,0.1,0.2,0.2c0,0.1,0.1,0.2,0.1,0.3l-0.4,0.1c0-0.1,0-0.1-0.1-0.1c0,0,0-0.1-0.1-0.1
		c0,0-0.1-0.1-0.1-0.1c0,0-0.1,0-0.1,0c-0.1,0-0.1,0-0.2,0.1c0,0-0.1,0.1-0.1,0.2c0,0.1,0,0.2,0.1,0.2l0.5,0.4
		c0.1,0,0.1,0.1,0.2,0.1c0,0,0.1,0.1,0.1,0.2c0,0.1,0.1,0.1,0.1,0.2c0,0.1,0,0.1,0,0.2c0,0.2-0.1,0.4-0.2,0.5S87.3,76.7,87.1,76.7z"
		/>
	<path class="st0" d="M89,76.7c-0.1,0-0.2,0-0.3-0.1c-0.1,0-0.2-0.1-0.2-0.2c-0.1-0.1-0.1-0.2-0.1-0.3c0-0.1-0.1-0.2-0.1-0.3
		c0-0.1,0-0.2,0-0.4c0-0.1,0-0.2,0-0.3c0-0.1,0-0.3,0-0.4c0-0.1,0-0.2,0.1-0.3c0-0.1,0.1-0.2,0.1-0.2s0.1-0.1,0.2-0.2
		c0.1,0,0.2-0.1,0.3-0.1c0.1,0,0.2,0,0.3,0c0.1,0,0.2,0.1,0.2,0.1c0.1,0.1,0.1,0.1,0.1,0.2s0.1,0.2,0.1,0.3c0,0.1,0,0.2,0,0.3
		c0,0.1,0,0.2,0,0.3v0.1h-1.1v0.1c0,0,0,0,0,0.1c0,0.1,0,0.1,0,0.2c0,0.1,0,0.1,0,0.2c0,0.1,0,0.1,0,0.2c0,0,0,0.1,0,0.1
		c0,0,0,0.1,0.1,0.1c0,0,0.1,0,0.1,0c0.1,0,0.1,0,0.1,0c0,0,0.1-0.1,0.1-0.1c0,0,0-0.1,0-0.1c0,0,0-0.1,0-0.2v-0.1h0.5v0.1
		c0,0.3-0.1,0.5-0.2,0.6C89.4,76.7,89.2,76.7,89,76.7z M88.7,75.1h0.5v-0.2c0-0.1,0-0.1,0-0.2c0-0.1,0-0.1,0-0.2
		c0-0.1,0-0.1-0.1-0.1c0,0-0.1,0-0.1,0c-0.1,0-0.1,0-0.1,0c0,0-0.1,0.1-0.1,0.1c0,0.1,0,0.1,0,0.2c0,0.1,0,0.1,0,0.2V75.1z"/>
	<path class="st0" d="M90.2,76.7V74h0.5v0.4c0.1-0.1,0.1-0.2,0.2-0.3C91,74,91.1,74,91.3,74c0,0,0,0,0.1,0v0.6
		c-0.1,0-0.2-0.1-0.3-0.1c-0.1,0-0.2,0-0.3,0.1c-0.1,0.1-0.1,0.2-0.1,0.3v1.8H90.2z"/>
	<path class="st0" d="M91.6,73.6v-0.5h0.5v0.5H91.6z M91.6,76.7V74h0.5v2.7H91.6z"/>
	<path class="st0" d="M94,76.5c-0.1,0.2-0.3,0.2-0.6,0.2c-0.3,0-0.5-0.1-0.6-0.2c-0.1-0.2-0.2-0.4-0.2-0.7V75c0-0.3,0.1-0.6,0.2-0.7
		c0.1-0.2,0.3-0.2,0.6-0.2c0.3,0,0.5,0.1,0.6,0.2c0.1,0.2,0.2,0.4,0.2,0.7v0.8C94.2,76.1,94.1,76.3,94,76.5z M93.3,76.3
		C93.3,76.3,93.4,76.3,93.3,76.3c0.1,0,0.2,0,0.2,0c0,0,0.1,0,0.1,0c0,0,0,0,0-0.1c0,0,0-0.1,0-0.1c0,0,0-0.1,0-0.1s0-0.1,0-0.1
		c0,0,0-0.1,0-0.1V75c0-0.1,0-0.1,0-0.1c0,0,0-0.1,0-0.1s0-0.1,0-0.1c0,0,0-0.1,0-0.1c0,0,0-0.1,0-0.1c0,0,0,0-0.1,0s-0.1,0-0.1,0
		c0,0-0.1,0-0.1,0s-0.1,0-0.1,0c0,0,0,0,0,0.1c0,0,0,0.1,0,0.1c0,0,0,0.1,0,0.1s0,0.1,0,0.1c0,0,0,0.1,0,0.1v0.8c0,0.1,0,0.1,0,0.1
		c0,0,0,0.1,0,0.1s0,0.1,0,0.1c0,0,0,0.1,0,0.1C93.2,76.2,93.2,76.2,93.3,76.3C93.3,76.3,93.3,76.3,93.3,76.3z"/>
	<path class="st0" d="M95,76.7c-0.1,0-0.2,0-0.3-0.1c-0.1-0.1-0.1-0.2-0.1-0.3V74h0.5v2.1c0,0.1,0,0.1,0.1,0.1c0,0,0.1,0.1,0.1,0.1
		c0,0,0.1,0,0.1,0c0,0,0.1,0,0.1,0c0,0,0,0,0.1,0c0,0,0,0,0.1-0.1s0,0,0.1,0V74h0.5v2.7h-0.5v-0.3c-0.1,0-0.1,0.1-0.1,0.1
		c0,0-0.1,0-0.1,0.1c0,0-0.1,0.1-0.1,0.1c0,0-0.1,0-0.1,0C95.1,76.7,95.1,76.7,95,76.7z"/>
	<path class="st0" d="M97.4,76.7c-0.2,0-0.4-0.1-0.5-0.2c-0.1-0.1-0.2-0.3-0.3-0.5l0.4-0.1c0.1,0.3,0.2,0.4,0.4,0.4
		c0.1,0,0.2,0,0.2-0.1c0,0,0.1-0.1,0.1-0.2c0-0.1,0-0.2-0.1-0.3L97,75.3c-0.1,0-0.1-0.1-0.1-0.1c0,0-0.1-0.1-0.1-0.1
		c0-0.1-0.1-0.1-0.1-0.2c0-0.1,0-0.1,0-0.2c0-0.2,0.1-0.4,0.2-0.5c0.1-0.1,0.3-0.2,0.6-0.2c0.1,0,0.2,0,0.3,0.1
		c0.1,0,0.2,0.1,0.2,0.2s0.1,0.1,0.2,0.2c0,0.1,0.1,0.2,0.1,0.3l-0.4,0.1c0-0.1,0-0.1-0.1-0.1c0,0,0-0.1-0.1-0.1s-0.1-0.1-0.1-0.1
		c0,0-0.1,0-0.1,0c-0.1,0-0.1,0-0.2,0.1c0,0-0.1,0.1-0.1,0.2c0,0.1,0,0.2,0.1,0.2l0.5,0.4c0.1,0,0.1,0.1,0.2,0.1
		c0,0,0.1,0.1,0.1,0.2c0,0.1,0.1,0.1,0.1,0.2c0,0.1,0,0.1,0,0.2c0,0.2-0.1,0.4-0.2,0.5S97.6,76.7,97.4,76.7z"/>
	<path class="st0" d="M98.5,76.7V73h0.5v3.7H98.5z"/>
	<path class="st0" d="M99.5,77.4V77c0.1,0,0.2,0,0.3,0s0.1,0,0.1-0.1c0,0,0.1-0.1,0.1-0.1c0,0,0-0.1,0-0.2L99.3,74h0.5
		c0.2,1.1,0.3,1.8,0.3,1.9c0-0.2,0.1-0.4,0.1-0.6c0-0.2,0.1-0.4,0.1-0.7c0-0.3,0.1-0.4,0.1-0.6h0.5l-0.7,2.8c0,0.2-0.1,0.3-0.3,0.4
		C100,77.3,99.8,77.4,99.5,77.4L99.5,77.4z"/>
	<path class="st0" d="M101.4,75.9l-0.1-2.9h0.5l-0.1,2.9H101.4z M101.2,76.7v-0.5h0.5v0.5H101.2z"/>
	<path class="st0" d="M102.9,76.7v-0.5l0.9-1.3c0,0,0,0,0.1-0.1c0-0.1,0.1-0.1,0.1-0.1c0,0,0-0.1,0.1-0.1c0,0,0.1-0.1,0.1-0.1
		c0,0,0-0.1,0-0.1c0,0,0-0.1,0-0.1c0,0,0-0.1,0-0.1c0,0,0-0.1,0-0.2c0-0.1,0-0.3-0.1-0.4c-0.1-0.1-0.2-0.2-0.3-0.2
		c-0.1,0-0.1,0-0.2,0.1c-0.1,0-0.1,0.1-0.1,0.2s0,0.1-0.1,0.2c0,0.1,0,0.2,0,0.2v0.1h-0.5V74c0-0.3,0.1-0.6,0.2-0.8
		c0.1-0.2,0.4-0.3,0.7-0.3c0.3,0,0.5,0.1,0.7,0.3c0.2,0.2,0.2,0.4,0.2,0.7c0,0.1,0,0.2,0,0.3c0,0.1-0.1,0.2-0.1,0.3
		c0,0.1-0.1,0.2-0.1,0.2c0,0.1-0.1,0.1-0.2,0.2l-0.9,1.2h1.3v0.5H102.9z"/>
	<path class="st0" d="M106.1,76.7v-1H105v-0.6L106,73h0.7v2.3h0.4v0.5h-0.4v1H106.1z M105.6,75.2h0.5v-1.6L105.6,75.2z"/>
	<path class="st0" d="M108.2,76.7V73h0.5v1.4c0.1-0.1,0.1-0.1,0.2-0.2c0,0,0.1-0.1,0.2-0.1c0.1,0,0.2-0.1,0.3-0.1
		c0.1,0,0.2,0,0.3,0.1c0.1,0.1,0.1,0.2,0.1,0.3v2.3h-0.5v-2c0-0.1,0-0.2,0-0.2c0,0-0.1-0.1-0.1-0.1c-0.1,0-0.2,0.1-0.3,0.2v2.1
		H108.2z"/>
	<path class="st0" d="M111.6,76.5c-0.1,0.2-0.3,0.2-0.6,0.2c-0.3,0-0.5-0.1-0.6-0.2c-0.1-0.2-0.2-0.4-0.2-0.7V75
		c0-0.3,0.1-0.6,0.2-0.7c0.1-0.2,0.3-0.2,0.6-0.2c0.3,0,0.5,0.1,0.6,0.2c0.1,0.2,0.2,0.4,0.2,0.7v0.8
		C111.8,76.1,111.8,76.3,111.6,76.5z M110.9,76.3C111,76.3,111,76.3,110.9,76.3c0.1,0,0.2,0,0.2,0c0,0,0.1,0,0.1,0c0,0,0,0,0-0.1
		c0,0,0-0.1,0-0.1c0,0,0-0.1,0-0.1s0-0.1,0-0.1c0,0,0-0.1,0-0.1V75c0-0.1,0-0.1,0-0.1c0,0,0-0.1,0-0.1s0-0.1,0-0.1c0,0,0-0.1,0-0.1
		c0,0,0-0.1,0-0.1c0,0,0,0-0.1,0s-0.1,0-0.1,0c0,0-0.1,0-0.1,0s-0.1,0-0.1,0c0,0,0,0,0,0.1c0,0,0,0.1,0,0.1c0,0,0,0.1,0,0.1
		s0,0.1,0,0.1c0,0,0,0.1,0,0.1v0.8c0,0.1,0,0.1,0,0.1c0,0,0,0.1,0,0.1s0,0.1,0,0.1c0,0,0,0.1,0,0.1
		C110.8,76.2,110.8,76.2,110.9,76.3C110.9,76.3,110.9,76.3,110.9,76.3z"/>
	<path class="st0" d="M112.7,76.7c-0.1,0-0.2,0-0.3-0.1c-0.1-0.1-0.1-0.2-0.1-0.3V74h0.5v2.1c0,0.1,0,0.1,0.1,0.1
		c0,0,0.1,0.1,0.1,0.1c0,0,0.1,0,0.1,0c0,0,0.1,0,0.1,0c0,0,0,0,0.1,0c0,0,0,0,0.1-0.1s0,0,0.1,0V74h0.5v2.7h-0.5v-0.3
		c-0.1,0-0.1,0.1-0.1,0.1c0,0-0.1,0-0.1,0.1c0,0-0.1,0.1-0.1,0.1c0,0-0.1,0-0.1,0C112.8,76.7,112.7,76.7,112.7,76.7z"/>
	<path class="st0" d="M114.3,76.7V74h0.5v0.4c0.1-0.1,0.1-0.2,0.2-0.3c0.1-0.1,0.2-0.1,0.3-0.1c0,0,0,0,0.1,0v0.6
		c-0.1,0-0.2-0.1-0.3-0.1c-0.1,0-0.2,0-0.3,0.1c-0.1,0.1-0.1,0.2-0.1,0.3v1.8H114.3z"/>
	<path class="st0" d="M116.5,76.7c-0.2,0-0.4-0.1-0.5-0.2s-0.2-0.3-0.3-0.5l0.4-0.1c0.1,0.3,0.2,0.4,0.4,0.4c0.1,0,0.2,0,0.2-0.1
		c0,0,0.1-0.1,0.1-0.2c0-0.1,0-0.2-0.1-0.3l-0.5-0.4c-0.1,0-0.1-0.1-0.1-0.1c0,0-0.1-0.1-0.1-0.1c0-0.1-0.1-0.1-0.1-0.2s0-0.1,0-0.2
		c0-0.2,0.1-0.4,0.2-0.5s0.3-0.2,0.6-0.2c0.1,0,0.2,0,0.3,0.1c0.1,0,0.2,0.1,0.2,0.2s0.1,0.1,0.2,0.2c0,0.1,0.1,0.2,0.1,0.3
		l-0.4,0.1c0-0.1,0-0.1-0.1-0.1c0,0,0-0.1-0.1-0.1s-0.1-0.1-0.1-0.1c0,0-0.1,0-0.1,0c-0.1,0-0.1,0-0.2,0.1c0,0-0.1,0.1-0.1,0.2
		c0,0.1,0,0.2,0.1,0.2l0.5,0.4c0.1,0,0.1,0.1,0.2,0.1c0,0,0.1,0.1,0.1,0.2c0,0.1,0.1,0.1,0.1,0.2c0,0.1,0,0.1,0,0.2
		c0,0.2-0.1,0.4-0.2,0.5S116.7,76.7,116.5,76.7z"/>
	<path class="st0" d="M118.9,76.7c-0.1,0-0.3-0.1-0.4-0.2c-0.1-0.1-0.2-0.3-0.2-0.4c0-0.1,0-0.2,0.1-0.4c0-0.1,0.1-0.2,0.1-0.3
		c0-0.1,0.1-0.1,0.2-0.2c0.1-0.1,0.2-0.1,0.3-0.1s0.2-0.1,0.3-0.1c0,0,0,0,0.1,0v-0.2c0-0.1,0-0.2-0.1-0.3c0-0.1-0.1-0.1-0.2-0.1
		c-0.1,0-0.2,0-0.2,0.1c0,0.1-0.1,0.1-0.1,0.3c0,0,0,0,0,0.1h-0.5c0-0.3,0.1-0.5,0.2-0.6c0.1-0.2,0.3-0.2,0.6-0.2
		c0.2,0,0.4,0.1,0.6,0.2c0.1,0.2,0.2,0.4,0.2,0.6V76c0,0.3,0,0.5,0.1,0.7h-0.5l-0.1-0.4c0,0.1,0,0.1-0.1,0.1c0,0,0,0.1-0.1,0.1
		c0,0-0.1,0.1-0.1,0.1c0,0-0.1,0-0.1,0.1C119,76.7,119,76.7,118.9,76.7z M119.2,76.3c0,0,0.1,0,0.1,0c0,0,0.1,0,0.1-0.1
		c0,0,0,0,0.1-0.1c0,0,0,0,0,0v-0.7c0,0-0.1,0-0.1,0.1c-0.1,0-0.1,0.1-0.1,0.1c0,0-0.1,0-0.1,0.1c0,0-0.1,0.1-0.1,0.1
		c0,0,0,0.1-0.1,0.1c0,0,0,0.1,0,0.1C118.9,76.2,119,76.3,119.2,76.3z"/>
	<path class="st0" d="M121.9,76.7c-0.1,0-0.2,0-0.3-0.1c-0.1-0.1-0.2-0.2-0.2-0.3c0-0.1-0.1-0.2-0.1-0.4c0-0.1,0-0.3,0-0.4
		c0-0.1,0-0.2,0-0.5c0-0.1,0-0.2,0-0.2c0-0.1,0-0.2,0-0.2c0-0.1,0-0.2,0-0.2c0-0.1,0-0.1,0.1-0.2c0-0.1,0.1-0.1,0.1-0.1
		c0,0,0.1-0.1,0.2-0.1s0.1,0,0.2,0c0.1,0,0.1,0,0.2,0c0.1,0,0.1,0,0.1,0.1c0,0,0.1,0.1,0.1,0.1c0,0,0.1,0.1,0.1,0.1V73h0.5v3.7h-0.5
		v-0.2c-0.1,0.1-0.2,0.2-0.2,0.2C122.1,76.7,122,76.7,121.9,76.7z M122.1,76.3c0.1,0,0.3,0,0.4-0.1v-1.7c-0.1-0.1-0.3-0.1-0.4-0.1
		c-0.1,0-0.1,0-0.1,0c0,0-0.1,0.1-0.1,0.1c0,0,0,0.1,0,0.2c0,0.1,0,0.1,0,0.2c0,0.3,0,0.6,0,0.7c0,0.1,0,0.2,0,0.2
		c0,0.1,0,0.1,0,0.2c0,0.1,0,0.1,0.1,0.1C122,76.3,122,76.3,122.1,76.3z"/>
	<path class="st0" d="M123.9,76.7c-0.1,0-0.3-0.1-0.4-0.2c-0.1-0.1-0.2-0.3-0.2-0.4c0-0.1,0-0.2,0.1-0.4c0-0.1,0.1-0.2,0.1-0.3
		c0-0.1,0.1-0.1,0.2-0.2c0.1-0.1,0.2-0.1,0.3-0.1s0.2-0.1,0.3-0.1c0,0,0,0,0.1,0v-0.2c0-0.1,0-0.2-0.1-0.3c0-0.1-0.1-0.1-0.2-0.1
		c-0.1,0-0.2,0-0.2,0.1c0,0.1-0.1,0.1-0.1,0.3c0,0,0,0,0,0.1h-0.5c0-0.3,0.1-0.5,0.2-0.6c0.1-0.2,0.3-0.2,0.6-0.2
		c0.2,0,0.4,0.1,0.6,0.2c0.1,0.2,0.2,0.4,0.2,0.6V76c0,0.3,0,0.5,0.1,0.7h-0.5l-0.1-0.4c0,0.1,0,0.1-0.1,0.1c0,0,0,0.1-0.1,0.1
		c0,0-0.1,0.1-0.1,0.1c0,0-0.1,0-0.1,0.1C124.1,76.7,124,76.7,123.9,76.7z M124.2,76.3c0,0,0.1,0,0.1,0c0,0,0.1,0,0.1-0.1
		c0,0,0,0,0.1-0.1c0,0,0,0,0,0v-0.7c0,0-0.1,0-0.1,0.1c-0.1,0-0.1,0.1-0.1,0.1c0,0-0.1,0-0.1,0.1c0,0-0.1,0.1-0.1,0.1
		c0,0,0,0.1-0.1,0.1c0,0,0,0.1,0,0.1C123.9,76.2,124,76.3,124.2,76.3z"/>
	<path class="st0" d="M125.4,77.4V77c0.1,0,0.2,0,0.3,0s0.1,0,0.1-0.1c0,0,0.1-0.1,0.1-0.1c0,0,0-0.1,0-0.2l-0.6-2.5h0.5
		c0.2,1.1,0.3,1.8,0.3,1.9c0-0.2,0.1-0.4,0.1-0.6c0-0.2,0.1-0.4,0.1-0.7c0-0.3,0.1-0.4,0.1-0.6h0.5l-0.7,2.8c0,0.2-0.1,0.3-0.3,0.4
		C125.9,77.3,125.7,77.4,125.4,77.4L125.4,77.4z"/>
	<path class="st0" d="M127.3,77.2l-0.1-0.3c0.1,0,0.2,0,0.2-0.1c0,0,0.1-0.1,0.1-0.2h-0.3v-0.5h0.5c0,0.2,0,0.4,0,0.5
		c0,0.1,0,0.1,0,0.2c0,0.1,0,0.1,0,0.2c0,0.1,0,0.1-0.1,0.1c0,0-0.1,0.1-0.1,0.1C127.4,77.2,127.4,77.2,127.3,77.2z"/>
	<path class="st0" d="M129.1,76.7l0.7-3.3h-1V73h1.5v0.3l-0.7,3.5H129.1z"/>
	<path class="st0" d="M132.2,76.7c-0.1,0-0.2,0-0.3-0.1c-0.1-0.1-0.2-0.2-0.2-0.3c0-0.1-0.1-0.2-0.1-0.4c0-0.1,0-0.3,0-0.4
		c0-0.1,0-0.2,0-0.5c0-0.1,0-0.2,0-0.2c0-0.1,0-0.2,0-0.2c0-0.1,0-0.2,0-0.2c0-0.1,0-0.1,0.1-0.2c0-0.1,0.1-0.1,0.1-0.1
		c0,0,0.1-0.1,0.2-0.1c0.1,0,0.1,0,0.2,0c0.1,0,0.1,0,0.2,0c0.1,0,0.1,0,0.1,0.1c0,0,0.1,0.1,0.1,0.1c0,0,0.1,0.1,0.1,0.1V73h0.5
		v3.7h-0.5v-0.2c-0.1,0.1-0.2,0.2-0.2,0.2C132.4,76.7,132.3,76.7,132.2,76.7z M132.3,76.3c0.1,0,0.3,0,0.4-0.1v-1.7
		c-0.1-0.1-0.3-0.1-0.4-0.1c-0.1,0-0.1,0-0.1,0c0,0-0.1,0.1-0.1,0.1c0,0,0,0.1,0,0.2c0,0.1,0,0.1,0,0.2c0,0.3,0,0.6,0,0.7
		c0,0.1,0,0.2,0,0.2c0,0.1,0,0.1,0,0.2c0,0.1,0,0.1,0.1,0.1C132.2,76.3,132.3,76.3,132.3,76.3z"/>
	<path class="st0" d="M134.2,76.7c-0.1,0-0.3-0.1-0.4-0.2c-0.1-0.1-0.2-0.3-0.2-0.4c0-0.1,0-0.2,0.1-0.4c0-0.1,0.1-0.2,0.1-0.3
		c0-0.1,0.1-0.1,0.2-0.2c0.1-0.1,0.2-0.1,0.3-0.1s0.2-0.1,0.3-0.1c0,0,0,0,0.1,0v-0.2c0-0.1,0-0.2-0.1-0.3c0-0.1-0.1-0.1-0.2-0.1
		c-0.1,0-0.2,0-0.2,0.1c0,0.1-0.1,0.1-0.1,0.3c0,0,0,0,0,0.1h-0.5c0-0.3,0.1-0.5,0.2-0.6c0.1-0.2,0.3-0.2,0.6-0.2
		c0.2,0,0.4,0.1,0.6,0.2c0.1,0.2,0.2,0.4,0.2,0.6V76c0,0.3,0,0.5,0.1,0.7h-0.5l-0.1-0.4c0,0.1,0,0.1-0.1,0.1c0,0,0,0.1-0.1,0.1
		c0,0-0.1,0.1-0.1,0.1c0,0-0.1,0-0.1,0.1S134.3,76.7,134.2,76.7z M134.5,76.3c0,0,0.1,0,0.1,0c0,0,0.1,0,0.1-0.1c0,0,0,0,0.1-0.1
		c0,0,0,0,0,0v-0.7c0,0-0.1,0-0.1,0.1c-0.1,0-0.1,0.1-0.1,0.1c0,0-0.1,0-0.1,0.1c0,0-0.1,0.1-0.1,0.1c0,0,0,0.1-0.1,0.1
		c0,0,0,0.1,0,0.1C134.2,76.2,134.3,76.3,134.5,76.3z"/>
	<path class="st0" d="M135.7,77.4V77c0.1,0,0.2,0,0.3,0s0.1,0,0.1-0.1c0,0,0.1-0.1,0.1-0.1c0,0,0-0.1,0-0.2l-0.6-2.5h0.5
		c0.2,1.1,0.3,1.8,0.3,1.9c0-0.2,0.1-0.4,0.1-0.6c0-0.2,0.1-0.4,0.1-0.7c0-0.3,0.1-0.4,0.1-0.6h0.5l-0.7,2.8c0,0.2-0.1,0.3-0.3,0.4
		C136.2,77.3,136,77.4,135.7,77.4L135.7,77.4z"/>
	<path class="st0" d="M138.2,76.7c-0.2,0-0.4-0.1-0.5-0.2c-0.1-0.1-0.2-0.3-0.3-0.5l0.4-0.1c0.1,0.3,0.2,0.4,0.4,0.4
		c0.1,0,0.2,0,0.2-0.1c0,0,0.1-0.1,0.1-0.2c0-0.1,0-0.2-0.1-0.3l-0.5-0.4c-0.1,0-0.1-0.1-0.1-0.1c0,0-0.1-0.1-0.1-0.1
		s-0.1-0.1-0.1-0.2c0-0.1,0-0.1,0-0.2c0-0.2,0.1-0.4,0.2-0.5c0.1-0.1,0.3-0.2,0.6-0.2c0.1,0,0.2,0,0.3,0.1c0.1,0,0.2,0.1,0.2,0.2
		s0.1,0.1,0.2,0.2c0,0.1,0.1,0.2,0.1,0.3l-0.4,0.1c0-0.1,0-0.1-0.1-0.1c0,0,0-0.1-0.1-0.1s-0.1-0.1-0.1-0.1c0,0-0.1,0-0.1,0
		c-0.1,0-0.1,0-0.2,0.1c0,0-0.1,0.1-0.1,0.2c0,0.1,0,0.2,0.1,0.2l0.5,0.4c0.1,0,0.1,0.1,0.2,0.1c0,0,0.1,0.1,0.1,0.2
		c0,0.1,0.1,0.1,0.1,0.2c0,0.1,0,0.1,0,0.2c0,0.2-0.1,0.4-0.2,0.5S138.5,76.7,138.2,76.7z"/>
	<path class="st0" d="M140.7,76.7c-0.1,0-0.3-0.1-0.4-0.2c-0.1-0.1-0.2-0.3-0.2-0.4c0-0.1,0-0.2,0.1-0.4c0-0.1,0.1-0.2,0.1-0.3
		c0-0.1,0.1-0.1,0.2-0.2c0.1-0.1,0.2-0.1,0.3-0.1s0.2-0.1,0.3-0.1c0,0,0,0,0.1,0v-0.2c0-0.1,0-0.2-0.1-0.3c0-0.1-0.1-0.1-0.2-0.1
		c-0.1,0-0.2,0-0.2,0.1c0,0.1-0.1,0.1-0.1,0.3c0,0,0,0,0,0.1h-0.5c0-0.3,0.1-0.5,0.2-0.6c0.1-0.2,0.3-0.2,0.6-0.2
		c0.2,0,0.4,0.1,0.6,0.2c0.1,0.2,0.2,0.4,0.2,0.6V76c0,0.3,0,0.5,0.1,0.7h-0.5l-0.1-0.4c0,0.1,0,0.1-0.1,0.1c0,0,0,0.1-0.1,0.1
		c0,0-0.1,0.1-0.1,0.1c0,0-0.1,0-0.1,0.1S140.8,76.7,140.7,76.7z M141,76.3c0,0,0.1,0,0.1,0c0,0,0.1,0,0.1-0.1c0,0,0,0,0.1-0.1
		c0,0,0,0,0,0v-0.7c0,0-0.1,0-0.1,0.1c-0.1,0-0.1,0.1-0.1,0.1c0,0-0.1,0-0.1,0.1c0,0-0.1,0.1-0.1,0.1c0,0,0,0.1-0.1,0.1
		c0,0,0,0.1,0,0.1C140.7,76.2,140.8,76.3,141,76.3z"/>
	<path class="st0" d="M143.4,76.7l-0.5-2.7h0.5l0.3,2l0.3-2h0.5l0.3,2l0.3-2h0.5l-0.5,2.7h-0.5l-0.3-1.8l-0.3,1.8H143.4z"/>
	<path class="st0" d="M146.5,76.7c-0.1,0-0.2,0-0.3-0.1c-0.1,0-0.2-0.1-0.2-0.2c-0.1-0.1-0.1-0.2-0.1-0.3c0-0.1-0.1-0.2-0.1-0.3
		c0-0.1,0-0.2,0-0.4c0-0.1,0-0.2,0-0.3c0-0.1,0-0.3,0-0.4c0-0.1,0-0.2,0.1-0.3c0-0.1,0.1-0.2,0.1-0.2c0.1-0.1,0.1-0.1,0.2-0.2
		c0.1,0,0.2-0.1,0.3-0.1c0.1,0,0.2,0,0.3,0c0.1,0,0.2,0.1,0.2,0.1c0.1,0.1,0.1,0.1,0.1,0.2c0,0.1,0.1,0.2,0.1,0.3c0,0.1,0,0.2,0,0.3
		c0,0.1,0,0.2,0,0.3v0.1h-1.1v0.1c0,0,0,0,0,0.1c0,0.1,0,0.1,0,0.2c0,0.1,0,0.1,0,0.2c0,0.1,0,0.1,0,0.2c0,0,0,0.1,0,0.1
		c0,0,0,0.1,0.1,0.1c0,0,0.1,0,0.1,0c0.1,0,0.1,0,0.1,0c0,0,0.1-0.1,0.1-0.1c0,0,0-0.1,0-0.1c0,0,0-0.1,0-0.2v-0.1h0.5v0.1
		c0,0.3-0.1,0.5-0.2,0.6S146.7,76.7,146.5,76.7z M146.2,75.1h0.5v-0.2c0-0.1,0-0.1,0-0.2c0-0.1,0-0.1,0-0.2c0-0.1,0-0.1-0.1-0.1
		c0,0-0.1,0-0.1,0s-0.1,0-0.1,0c0,0-0.1,0.1-0.1,0.1c0,0.1,0,0.1,0,0.2c0,0.1,0,0.1,0,0.2V75.1z"/>
	<path class="st0" d="M148.4,76.7c-0.1,0-0.2,0-0.3-0.1c-0.1,0-0.2-0.1-0.2-0.2c-0.1-0.1-0.1-0.2-0.1-0.3c0-0.1-0.1-0.2-0.1-0.3
		c0-0.1,0-0.2,0-0.4c0-0.1,0-0.2,0-0.3c0-0.1,0-0.3,0-0.4c0-0.1,0-0.2,0.1-0.3c0-0.1,0.1-0.2,0.1-0.2c0.1-0.1,0.1-0.1,0.2-0.2
		c0.1,0,0.2-0.1,0.3-0.1c0.1,0,0.2,0,0.3,0c0.1,0,0.2,0.1,0.2,0.1c0.1,0.1,0.1,0.1,0.1,0.2s0.1,0.2,0.1,0.3c0,0.1,0,0.2,0,0.3
		c0,0.1,0,0.2,0,0.3v0.1h-1.1v0.1c0,0,0,0,0,0.1c0,0.1,0,0.1,0,0.2c0,0.1,0,0.1,0,0.2c0,0.1,0,0.1,0,0.2c0,0,0,0.1,0,0.1
		c0,0,0,0.1,0.1,0.1c0,0,0.1,0,0.1,0c0.1,0,0.1,0,0.1,0c0,0,0.1-0.1,0.1-0.1s0-0.1,0-0.1c0,0,0-0.1,0-0.2v-0.1h0.5v0.1
		c0,0.3-0.1,0.5-0.2,0.6C148.9,76.7,148.7,76.7,148.4,76.7z M148.1,75.1h0.5v-0.2c0-0.1,0-0.1,0-0.2c0-0.1,0-0.1,0-0.2
		c0-0.1,0-0.1-0.1-0.1c0,0-0.1,0-0.1,0s-0.1,0-0.1,0c0,0-0.1,0.1-0.1,0.1c0,0.1,0,0.1,0,0.2c0,0.1,0,0.1,0,0.2V75.1z"/>
	<path class="st0" d="M149.6,76.7V73h0.5v2l0.7-1h0.5l-0.6,0.9l0.6,1.7h-0.5l-0.4-1.3l-0.3,0.4v0.9H149.6z"/>
	<path class="st0" d="M151.5,76.7v-0.5h0.5v0.5H151.5z"/>
</g>
<g>
	<path class="st0" d="M143.2,54.6c-0.1-0.1-0.2-0.2-0.2-0.4s0.1-0.3,0.2-0.4c0.1-0.1,0.2-0.2,0.4-0.2h2.6v-1.3l1.8,1.8l-1.8,1.8
		v-1.3h-2.6C143.4,54.8,143.3,54.7,143.2,54.6z"/>
</g>
</svg>
