<?xml version="1.0" encoding="utf-8"?>
<!-- Generator: Adobe Illustrator 19.2.1, SVG Export Plug-In . SVG Version: 6.00 Build 0)  -->
<!DOCTYPE svg PUBLIC "-//W3C//DTD SVG 1.1//EN" "http://www.w3.org/Graphics/SVG/1.1/DTD/svg11.dtd">
<svg version="1.1" id="Layer_1" xmlns="http://www.w3.org/2000/svg" xmlns:xlink="http://www.w3.org/1999/xlink" x="0px" y="0px"
	 width="239.8px" height="200px" viewBox="0 0 239.8 200" style="enable-background:new 0 0 239.8 200;" xml:space="preserve">
<style type="text/css">
	.st0{fill:#D95388;}
	.st1{fill:#DCDDDD;}
	.st2{font-family:'MyriadPro-Regular';}
	.st3{font-size:6.6053px;}
	.st4{font-size:13.2106px;}
</style>
<g>
	<path class="st0" d="M35.2,95c48.9,0,97.9,0,146.8,0c4.1,0,10.4-0.6,13.5-3.6c2.2-2.1,3.3-4.5-1.2-4.5c-48.9,0-97.9,0-146.8,0
		c-4.1,0-10.4,0.6-13.5,3.6C31.8,92.6,30.7,95,35.2,95L35.2,95z"/>
</g>
<g>
	<path class="st1" d="M35.2,140.7c48.9,0,97.9,0,146.8,0c4.1,0,10.4-0.6,13.5-3.6c2.2-2.1,3.3-4.5-1.2-4.5c-48.9,0-97.9,0-146.8,0
		c-4.1,0-10.4,0.6-13.5,3.6C31.8,138.3,30.7,140.7,35.2,140.7L35.2,140.7z"/>
</g>
<g>
	<path class="st1" d="M35.2,163.6c48.9,0,97.9,0,146.8,0c4.1,0,10.4-0.6,13.5-3.6c2.2-2.1,3.3-4.5-1.2-4.5c-48.9,0-97.9,0-146.8,0
		c-4.1,0-10.4,0.6-13.5,3.6C31.8,161.2,30.7,163.6,35.2,163.6L35.2,163.6z"/>
</g>
<g>
	<path class="st1" d="M3,17.6C3.2,69,3.9,120.4,4.8,171.7c0.1,7.2-2.4,19.3,4.1,23.9c5.4,3.8,16.2,2.4,22.7,2.4
		c28.5,0.1,57.1,0,85.6,0c28.5,0,56.9-0.1,85.4-0.1c8.1,0,17.9,1.4,25.6-0.9c11.4-3.4,9.3-18.1,9.2-27.5c-0.3-40.6-0.6-81.1-1-121.7
		c-0.1-8.4,2-20.5-0.3-28.5c-1.8-6.6-6.7-6-12.4-5.9c-15.8,0.2-31.5,0.7-47.3,1.1c-19.9,0.6-39.7,1.2-59.6,1.7
		c-4.6,0.1-12,1.8-16.5,0.4c-3.2-1-2-0.1-2.4-4.7c-0.2-2.3-0.6-5-2.1-6.8c-3.5-4.2-10.4-3.5-15.2-3.5C68,1.4,55.2,1.7,42.5,1.9
		C28.5,2,4.4-2.3,3,17.6c-0.1,0.9,1.6,0.7,1.6-0.1C5.5,4.5,17.8,3.4,28.2,3.3C36.7,3.2,45.2,3.1,53.8,3c8.5-0.1,16.9-0.3,25.4-0.2
		c4.4,0,9.1-0.5,13,1.8c4.7,2.8,4.4,7.5,4.5,12.6c0,0.3,0.1,0.4,0.4,0.5c3.6,1.6,10.8,0,14.6-0.1c12.2-0.3,24.3-0.7,36.5-1
		c15.3-0.5,30.7-0.9,46-1.3c6.1-0.2,12.2-0.3,18.2-0.4c4.6-0.1,11.7-1.6,16.1-0.2c9.8,3,6.4,24.1,6.5,31.7
		c0.1,10.6,0.2,21.3,0.3,31.9c0.1,18.1,0.3,36.2,0.4,54.3c0.1,13.4,0.3,26.9,0.3,40.3c0,5.4,0.9,13.5-1.9,18.4
		c-3.8,6.7-13.2,5.5-19.8,5.5c-42.3,0-84.7,0.1-127,0.1c-20,0-40.1,0.1-60.1-0.1c-2.4,0-4.7,0-7.1-0.1c-5.2-0.3-10.7-0.7-12.8-6.2
		c-1.2-3.1-0.5-7.6-0.6-10.8c-0.1-6.1-0.2-12.3-0.3-18.4C5.6,113.3,4.8,65.4,4.6,17.5C4.6,16.6,3,16.8,3,17.6z"/>
</g>
<g>
	<path class="st1" d="M17.8,15.7c2.1,2.3,4.3,4.6,6.4,6.9c0.8,0.9,3.9-0.3,3-1.3c-2.1-2.3-4.3-4.6-6.4-6.9
		C20,13.5,16.9,14.7,17.8,15.7L17.8,15.7z"/>
</g>
<g>
	<path class="st1" d="M24.3,15.1c-2.1,2.3-4.3,4.6-6.4,6.9c-0.5,0.5,0.4,0.7,0.8,0.7c0.7,0,1.6-0.3,2.1-0.8c2.1-2.3,4.3-4.6,6.4-6.9
		c0.5-0.5-0.4-0.7-0.8-0.7C25.7,14.3,24.8,14.6,24.3,15.1L24.3,15.1z"/>
</g>
<g>
	<path class="st1" d="M19.2,40.7c61.9-1.2,123.7-2.4,185.6-3.5c2.9-0.1,7.9-1.1,10.7-0.2c5.9,1.9,8,13,5.9,18.9
		c-3,8.6-20.9,5.2-27.3,5.3c-38.5,0.6-77.1,1.2-115.6,1.8c-17,0.3-34,0.5-51,0.8c-1.4,0-7.7,0.3-7.8,0.2c-0.4-0.4,0.3-10.2,0.3-11.8
		c0-4,0-8.1,0-12.1c0-0.8-1.6-0.5-1.6,0.1c0,8.1,0,16.2,0,24.3c0,0.4,0.4,0.5,0.7,0.5c62.5-1,124.9-1.9,187.4-2.9
		c7.2-0.1,15.6,1.6,16.5-7.8c1-10.1,1-18.3-10.1-18.4c-32.7-0.1-65.5,1.2-98.2,1.9C83,38.4,51.2,39,19.4,39.6
		C18.5,39.6,18.2,40.7,19.2,40.7z"/>
</g>
<g>
	<path class="st1" d="M210.1,53.3c0.9,1,1.8,2,2.7,2.9c0.8,0.9,3.9-0.3,3-1.3c-0.9-1-1.8-2-2.7-2.9
		C212.3,51.1,209.2,52.3,210.1,53.3L210.1,53.3z"/>
</g>
<g>
	<path class="st1" d="M211.5,49.6c-0.1,1.4-0.8,3.3-2.5,3c-1.6-0.3-2.6-2-2.6-3.5c0-1.5,1-3.3,2.7-2.8c1.6,0.5,2.3,2,2.4,3.5
		c0.1,1.1,3.3,0.4,3.2-0.9c-0.4-6.8-11.5-5.7-11.5,0.7c0,6.9,11.2,5.9,11.5-0.5C214.8,47.8,211.6,48.4,211.5,49.6z"/>
</g>
<g>
	<path class="st1" d="M197,61.5c0-8.3,0-16.6,0-24.9c0-0.4-1.6-0.1-1.6,0.4c0,8.3,0,16.6,0,24.9C195.4,62.3,197,62,197,61.5
		L197,61.5z"/>
</g>
<text transform="matrix(1 0 0 1 174.6346 183.4855)" class="st1 st2 st3">page 1 0f 34,542</text>
<text transform="matrix(1 0 0 1 31.7088 55.548)" class="st1 st2 st4">A/C company near me</text>
</svg>
